<svg xmlns="http://www.w3.org/2000/svg" width="748" height="750" viewBox="0 0 748 750">
  <g id="Group_19" transform="translate(2038 -1321)">
    <path id="Subtraction_1" d="M698,749.5H50A49.459,49.459,0,0,1,.5,700V50A49.459,49.459,0,0,1,50,.5H698A49.459,49.459,0,0,1,747.5,50V700A49.46,49.46,0,0,1,698,749.5ZM77.79,79.547V392.973h78.2V540.542H255.63V670.453H492.748V540.542h94.6V392.973h82.613V79.547H77.79Z" transform="translate(-2038 1321)" fill="#2e3092" stroke="#fff" stroke-width="1"/>
    <g id="Rectangle_17" transform="translate(-1920 1428)" fill="#2e3092" stroke="#fff" stroke-width="1">
      <rect width="30" height="120" rx="15" stroke="none"/>
      <rect x="0.5" y="0.5" width="29" height="119" rx="14.5" fill="none"/>
    </g>
    <g id="Rectangle_18" transform="translate(-1851 1428)" fill="#2e3092" stroke="#fff" stroke-width="1">
      <rect width="30" height="120" rx="15" stroke="none"/>
      <rect x="0.5" y="0.5" width="29" height="119" rx="14.5" fill="none"/>
    </g>
    <g id="Rectangle_19" transform="translate(-1782 1428)" fill="#2e3092" stroke="#fff" stroke-width="1">
      <rect width="30" height="120" rx="15" stroke="none"/>
      <rect x="0.5" y="0.5" width="29" height="119" rx="14.5" fill="none"/>
    </g>
    <g id="Rectangle_20" transform="translate(-1713 1428)" fill="#2e3092" stroke="#fff" stroke-width="1">
      <rect width="30" height="120" rx="15" stroke="none"/>
      <rect x="0.5" y="0.5" width="29" height="119" rx="14.5" fill="none"/>
    </g>
    <g id="Rectangle_21" transform="translate(-1645 1428)" fill="#2e3092" stroke="#fff" stroke-width="1">
      <rect width="30" height="120" rx="15" stroke="none"/>
      <rect x="0.5" y="0.5" width="29" height="119" rx="14.5" fill="none"/>
    </g>
    <g id="Rectangle_22" transform="translate(-1576 1428)" fill="#2e3092" stroke="#fff" stroke-width="1">
      <rect width="30" height="120" rx="15" stroke="none"/>
      <rect x="0.5" y="0.5" width="29" height="119" rx="14.5" fill="none"/>
    </g>
    <g id="Rectangle_23" transform="translate(-1507 1428)" fill="#2e3092" stroke="#fff" stroke-width="1">
      <rect width="30" height="120" rx="15" stroke="none"/>
      <rect x="0.5" y="0.5" width="29" height="119" rx="14.5" fill="none"/>
    </g>
    <g id="Rectangle_24" transform="translate(-1438 1428)" fill="#2e3092" stroke="#fff" stroke-width="1">
      <rect width="30" height="120" rx="15" stroke="none"/>
      <rect x="0.5" y="0.5" width="29" height="119" rx="14.5" fill="none"/>
    </g>
  </g>
</svg>
