<svg xmlns="http://www.w3.org/2000/svg" xmlns:xlink="http://www.w3.org/1999/xlink" width="1000" zoomAndPan="magnify" viewBox="0 0 750 749.999995" height="1000" preserveAspectRatio="xMidYMid meet" version="1.0"><defs><clipPath id="b32391f89d"><path d="M 471 0 L 733.296875 0 L 733.296875 262 L 471 262 Z M 471 0 " clip-rule="nonzero"/></clipPath><clipPath id="9146951c61"><path d="M 413 0 L 733.296875 0 L 733.296875 320 L 413 320 Z M 413 0 " clip-rule="nonzero"/></clipPath><clipPath id="4abd74ba47"><path d="M 17.046875 250 L 279 250 L 279 512 L 17.046875 512 Z M 17.046875 250 " clip-rule="nonzero"/></clipPath><clipPath id="51049da9ff"><path d="M 17.046875 191 L 338 191 L 338 570 L 17.046875 570 Z M 17.046875 191 " clip-rule="nonzero"/></clipPath><clipPath id="59cb085893"><path d="M 471 488 L 733.296875 488 L 733.296875 750 L 471 750 Z M 471 488 " clip-rule="nonzero"/></clipPath><clipPath id="31e65a79a3"><path d="M 413 430 L 733.296875 430 L 733.296875 750 L 413 750 Z M 413 430 " clip-rule="nonzero"/></clipPath></defs><g clip-path="url(#b32391f89d)"><path fill="#2e3092" d="M 733.296875 130.683594 C 733.296875 132.824219 733.242188 134.960938 733.136719 137.097656 C 733.03125 139.234375 732.875 141.367188 732.664062 143.496094 C 732.457031 145.621094 732.195312 147.746094 731.878906 149.859375 C 731.566406 151.976562 731.199219 154.082031 730.785156 156.179688 C 730.367188 158.277344 729.898438 160.363281 729.378906 162.4375 C 728.855469 164.511719 728.285156 166.574219 727.664062 168.621094 C 727.042969 170.667969 726.375 172.695312 725.652344 174.710938 C 724.933594 176.722656 724.160156 178.71875 723.34375 180.695312 C 722.523438 182.671875 721.65625 184.625 720.742188 186.558594 C 719.828125 188.492188 718.867188 190.402344 717.855469 192.289062 C 716.847656 194.171875 715.792969 196.035156 714.695312 197.867188 C 713.59375 199.703125 712.449219 201.507812 711.261719 203.289062 C 710.074219 205.066406 708.839844 206.8125 707.566406 208.53125 C 706.292969 210.25 704.976562 211.933594 703.617188 213.589844 C 702.261719 215.242188 700.863281 216.859375 699.425781 218.445312 C 697.988281 220.03125 696.515625 221.578125 695 223.089844 C 693.488281 224.601562 691.9375 226.078125 690.355469 227.511719 C 688.769531 228.949219 687.148438 230.34375 685.496094 231.703125 C 683.839844 233.058594 682.152344 234.375 680.433594 235.648438 C 678.71875 236.921875 676.96875 238.152344 675.1875 239.34375 C 673.410156 240.53125 671.601562 241.675781 669.765625 242.773438 C 667.933594 243.871094 666.070312 244.925781 664.183594 245.933594 C 662.296875 246.941406 660.386719 247.902344 658.453125 248.820312 C 656.515625 249.734375 654.5625 250.597656 652.585938 251.417969 C 650.609375 252.238281 648.613281 253.003906 646.597656 253.726562 C 644.582031 254.445312 642.550781 255.117188 640.503906 255.738281 C 638.457031 256.359375 636.394531 256.929688 634.320312 257.449219 C 632.242188 257.96875 630.15625 258.4375 628.058594 258.855469 C 625.960938 259.273438 623.851562 259.636719 621.734375 259.949219 C 619.617188 260.265625 617.496094 260.527344 615.367188 260.734375 C 613.238281 260.945312 611.105469 261.101562 608.964844 261.207031 C 606.828125 261.3125 604.691406 261.367188 602.550781 261.367188 C 600.410156 261.367188 598.273438 261.3125 596.136719 261.207031 C 594 261.101562 591.867188 260.945312 589.734375 260.734375 C 587.605469 260.527344 585.484375 260.265625 583.367188 259.949219 C 581.25 259.636719 579.144531 259.273438 577.042969 258.855469 C 574.945312 258.4375 572.859375 257.96875 570.785156 257.449219 C 568.707031 256.929688 566.644531 256.359375 564.597656 255.738281 C 562.550781 255.117188 560.519531 254.445312 558.503906 253.726562 C 556.492188 253.003906 554.496094 252.238281 552.519531 251.417969 C 550.539062 250.597656 548.585938 249.734375 546.652344 248.820312 C 544.71875 247.902344 542.804688 246.941406 540.917969 245.933594 C 539.03125 244.925781 537.171875 243.871094 535.335938 242.773438 C 533.5 241.671875 531.691406 240.53125 529.914062 239.34375 C 528.136719 238.152344 526.386719 236.921875 524.667969 235.648438 C 522.949219 234.375 521.261719 233.058594 519.609375 231.703125 C 517.953125 230.34375 516.335938 228.949219 514.75 227.511719 C 513.164062 226.078125 511.613281 224.601562 510.101562 223.089844 C 508.589844 221.578125 507.113281 220.03125 505.675781 218.445312 C 504.238281 216.859375 502.84375 215.242188 501.484375 213.585938 C 500.128906 211.933594 498.8125 210.25 497.535156 208.53125 C 496.261719 206.8125 495.03125 205.066406 493.839844 203.289062 C 492.652344 201.507812 491.507812 199.703125 490.410156 197.867188 C 489.308594 196.035156 488.253906 194.171875 487.246094 192.289062 C 486.238281 190.402344 485.273438 188.492188 484.359375 186.558594 C 483.445312 184.625 482.578125 182.671875 481.757812 180.695312 C 480.941406 178.71875 480.171875 176.722656 479.449219 174.710938 C 478.730469 172.695312 478.058594 170.667969 477.4375 168.621094 C 476.816406 166.574219 476.246094 164.511719 475.726562 162.4375 C 475.207031 160.363281 474.738281 158.277344 474.320312 156.179688 C 473.902344 154.082031 473.535156 151.976562 473.222656 149.859375 C 472.910156 147.746094 472.648438 145.621094 472.4375 143.496094 C 472.226562 141.367188 472.070312 139.234375 471.964844 137.097656 C 471.859375 134.960938 471.808594 132.824219 471.808594 130.683594 C 471.808594 128.546875 471.859375 126.410156 471.964844 124.273438 C 472.070312 122.136719 472.226562 120.003906 472.4375 117.875 C 472.648438 115.75 472.910156 113.625 473.222656 111.511719 C 473.535156 109.394531 473.902344 107.289062 474.320312 105.191406 C 474.738281 103.09375 475.207031 101.007812 475.726562 98.933594 C 476.246094 96.859375 476.816406 94.796875 477.4375 92.75 C 478.058594 90.703125 478.730469 88.675781 479.449219 86.660156 C 480.171875 84.648438 480.941406 82.652344 481.757812 80.675781 C 482.578125 78.699219 483.445312 76.746094 484.359375 74.8125 C 485.273438 72.878906 486.238281 70.96875 487.246094 69.082031 C 488.253906 67.195312 489.308594 65.335938 490.410156 63.503906 C 491.507812 61.667969 492.652344 59.863281 493.839844 58.082031 C 495.03125 56.304688 496.261719 54.558594 497.535156 52.839844 C 498.8125 51.121094 500.128906 49.4375 501.484375 47.78125 C 502.84375 46.128906 504.238281 44.511719 505.675781 42.925781 C 507.113281 41.339844 508.589844 39.792969 510.101562 38.28125 C 511.613281 36.769531 513.164062 35.292969 514.75 33.859375 C 516.335938 32.421875 517.953125 31.023438 519.609375 29.667969 C 521.261719 28.3125 522.949219 26.996094 524.667969 25.722656 C 526.386719 24.449219 528.136719 23.21875 529.914062 22.027344 C 531.691406 20.839844 533.5 19.695312 535.335938 18.597656 C 537.171875 17.5 539.03125 16.445312 540.917969 15.4375 C 542.804688 14.429688 544.71875 13.464844 546.652344 12.550781 C 548.585938 11.636719 550.539062 10.769531 552.519531 9.953125 C 554.496094 9.132812 556.492188 8.363281 558.503906 7.644531 C 560.519531 6.925781 562.550781 6.253906 564.597656 5.632812 C 566.644531 5.011719 568.707031 4.441406 570.785156 3.921875 C 572.859375 3.402344 574.945312 2.933594 577.042969 2.515625 C 579.144531 2.097656 581.25 1.734375 583.367188 1.421875 C 585.484375 1.105469 587.605469 0.84375 589.734375 0.636719 C 591.867188 0.425781 594 0.269531 596.136719 0.164062 C 598.273438 0.0585938 600.410156 0.00390625 602.550781 0.00390625 C 604.691406 0.00390625 606.828125 0.0585938 608.964844 0.164062 C 611.105469 0.269531 613.238281 0.425781 615.367188 0.636719 C 617.496094 0.84375 619.617188 1.105469 621.734375 1.421875 C 623.851562 1.734375 625.960938 2.097656 628.058594 2.515625 C 630.15625 2.933594 632.242188 3.402344 634.320312 3.921875 C 636.394531 4.441406 638.457031 5.011719 640.503906 5.632812 C 642.550781 6.253906 644.582031 6.925781 646.597656 7.644531 C 648.613281 8.363281 650.609375 9.132812 652.585938 9.953125 C 654.5625 10.769531 656.515625 11.636719 658.453125 12.550781 C 660.386719 13.464844 662.296875 14.429688 664.183594 15.4375 C 666.070312 16.445312 667.933594 17.5 669.765625 18.597656 C 671.601562 19.695312 673.410156 20.839844 675.1875 22.027344 C 676.96875 23.21875 678.71875 24.449219 680.433594 25.722656 C 682.152344 26.996094 683.839844 28.3125 685.496094 29.667969 C 687.148438 31.023438 688.769531 32.421875 690.355469 33.859375 C 691.9375 35.292969 693.488281 36.769531 695 38.28125 C 696.515625 39.792969 697.988281 41.339844 699.425781 42.925781 C 700.863281 44.511719 702.261719 46.128906 703.617188 47.78125 C 704.976562 49.4375 706.292969 51.121094 707.566406 52.839844 C 708.839844 54.558594 710.074219 56.304688 711.261719 58.082031 C 712.449219 59.863281 713.59375 61.667969 714.695312 63.503906 C 715.792969 65.335938 716.847656 67.195312 717.855469 69.082031 C 718.867188 70.96875 719.828125 72.878906 720.742188 74.8125 C 721.65625 76.746094 722.523438 78.699219 723.34375 80.675781 C 724.160156 82.652344 724.933594 84.648438 725.652344 86.660156 C 726.375 88.675781 727.042969 90.703125 727.664062 92.75 C 728.285156 94.796875 728.855469 96.859375 729.378906 98.933594 C 729.898438 101.007812 730.367188 103.09375 730.785156 105.191406 C 731.199219 107.289062 731.566406 109.394531 731.878906 111.511719 C 732.195312 113.625 732.457031 115.75 732.664062 117.875 C 732.875 120.003906 733.03125 122.136719 733.136719 124.273438 C 733.242188 126.410156 733.296875 128.546875 733.296875 130.683594 Z M 733.296875 130.683594 " fill-opacity="1" fill-rule="nonzero"/></g><g clip-path="url(#9146951c61)"><path stroke-linecap="butt" transform="matrix(11.369048, 0, 0, 11.363467, 471.807364, 0.00560036)" fill="none" stroke-linejoin="miter" d="M 22.499861 11.499835 C 22.499861 11.679962 22.495738 11.86009 22.486805 12.039874 C 22.477872 12.219658 22.464816 12.399098 22.446949 12.578194 C 22.429426 12.757291 22.407437 12.936044 22.38098 13.114109 C 22.354524 13.292174 22.323602 13.469552 22.288556 13.645898 C 22.25351 13.822588 22.213998 13.998247 22.170362 14.172874 C 22.126727 14.347502 22.078624 14.520755 22.026399 14.692976 C 21.974174 14.865541 21.917482 15.036387 21.857011 15.205859 C 21.796197 15.37533 21.731602 15.543082 21.662541 15.70946 C 21.593824 15.875837 21.520984 16.040496 21.44402 16.203092 C 21.367057 16.365688 21.285971 16.526566 21.201105 16.685381 C 21.116239 16.844196 21.027594 17.000604 20.935169 17.155294 C 20.842401 17.30964 20.746197 17.46158 20.646213 17.611113 C 20.546229 17.76099 20.442466 17.908118 20.335267 18.052839 C 20.228068 18.197216 20.117434 18.339187 20.003019 18.478407 C 19.888949 18.617628 19.771442 18.753755 19.6505 18.887132 C 19.529557 19.020509 19.405523 19.150792 19.278052 19.278326 C 19.150925 19.405515 19.020706 19.529611 18.887051 19.650612 C 18.753739 19.77127 18.617335 19.888835 18.478183 20.002961 C 18.33903 20.117432 18.197129 20.228121 18.052823 20.335373 C 17.908173 20.442624 17.761118 20.546094 17.611315 20.646127 C 17.461511 20.74616 17.309646 20.842411 17.155032 20.934881 C 17.000762 21.027695 16.844086 21.116384 16.685349 21.201292 C 16.526612 21.285855 16.365814 21.366982 16.202954 21.443983 C 16.040438 21.520984 15.87586 21.59386 15.709564 21.662611 C 15.543268 21.731706 15.375254 21.796332 15.205866 21.856833 C 15.036135 21.917677 14.865372 21.974053 14.693236 22.026304 C 14.520755 22.078555 14.347244 22.12668 14.172702 22.170337 C 13.99816 22.213994 13.822588 22.253526 13.645984 22.288589 C 13.469381 22.323652 13.29209 22.35459 13.114113 22.381059 C 12.935791 22.407528 12.75747 22.429529 12.578118 22.44706 C 12.399109 22.464592 12.219414 22.477998 12.039718 22.486592 C 11.860022 22.49553 11.679983 22.499999 11.499944 22.499999 C 11.319905 22.499999 11.140209 22.49553 10.96017 22.486592 C 10.780474 22.477998 10.601122 22.464592 10.42177 22.44706 C 10.242761 22.429529 10.064096 22.407185 9.886119 22.381059 C 9.707797 22.35459 9.530507 22.323652 9.353903 22.288589 C 9.1773 22.253526 9.001727 22.213994 8.827186 22.170337 C 8.652644 22.12668 8.479133 22.078555 8.306996 22.026304 C 8.134515 21.974053 7.963753 21.917677 7.794365 21.856833 C 7.624633 21.796332 7.456963 21.731706 7.290324 21.662611 C 7.124028 21.59386 6.959794 21.520984 6.796934 21.443983 C 6.634074 21.366982 6.473275 21.285855 6.314538 21.201292 C 6.155802 21.116384 5.999126 21.027695 5.844856 20.934881 C 5.690586 20.842411 5.538377 20.74616 5.388573 20.646127 C 5.239113 20.546094 5.092058 20.442624 4.947408 20.335373 C 4.802758 20.228121 4.660857 20.117432 4.521705 20.002961 C 4.382552 19.888835 4.246149 19.77127 4.112837 19.650612 C 3.979525 19.529611 3.848963 19.405515 3.721836 19.278326 C 3.594365 19.150792 3.47033 19.020509 3.349388 18.887132 C 3.228789 18.753755 3.110939 18.617628 2.996868 18.478407 C 2.882798 18.339187 2.771819 18.197216 2.66462 18.052839 C 2.557422 17.908118 2.454002 17.76099 2.353675 17.611113 C 2.253691 17.46158 2.157487 17.30964 2.065062 17.155294 C 1.972294 17.000604 1.883649 16.844196 1.798783 16.685381 C 1.713917 16.526566 1.633174 16.365688 1.556211 16.203092 C 1.479248 16.040496 1.406064 15.875837 1.337346 15.70946 C 1.268285 15.543082 1.203691 15.37533 1.142876 15.205859 C 1.082405 15.036387 1.026057 14.865541 0.973488 14.692976 C 0.921263 14.520755 0.873505 14.347502 0.829526 14.172874 C 0.78589 13.998247 0.746378 13.822588 0.711332 13.645898 C 0.676286 13.469552 0.645363 13.292174 0.618907 13.114109 C 0.592795 12.936044 0.570462 12.757291 0.552939 12.578194 C 0.535416 12.399098 0.522016 12.219658 0.513083 12.039874 C 0.504493 11.86009 0.500026 11.679962 0.500026 11.499835 C 0.500026 11.320051 0.504493 11.139923 0.513083 10.960139 C 0.522016 10.780355 0.535416 10.600915 0.552939 10.421819 C 0.570462 10.242722 0.592795 10.06397 0.618907 9.885904 C 0.645363 9.707839 0.676286 9.530462 0.711332 9.354115 C 0.746378 9.177425 0.78589 9.001766 0.829526 8.827139 C 0.873505 8.652511 0.921263 8.479258 0.973488 8.307037 C 1.026057 8.134472 1.082405 7.963626 1.142876 7.794154 C 1.203691 7.624683 1.268285 7.456931 1.337346 7.290553 C 1.406064 7.124176 1.479248 6.959517 1.556211 6.796921 C 1.633174 6.634325 1.713917 6.473447 1.798783 6.314632 C 1.883649 6.155818 1.972294 5.999409 2.065062 5.844719 C 2.157487 5.690373 2.253691 5.538433 2.353675 5.388556 C 2.454002 5.239023 2.557422 5.091896 2.66462 4.947175 C 2.771819 4.802797 2.882798 4.660827 2.996868 4.521606 C 3.110939 4.382385 3.228789 4.246258 3.349388 4.112881 C 3.47033 3.979504 3.594365 3.849221 3.721836 3.721688 C 3.848963 3.594498 3.979525 3.470403 4.112837 3.349401 C 4.246149 3.228743 4.382552 3.111179 4.521705 2.997052 C 4.660857 2.882581 4.802758 2.771892 4.947408 2.664641 C 5.092058 2.557389 5.239113 2.453919 5.388573 2.353886 C 5.538377 2.253853 5.690586 2.157602 5.844856 2.065132 C 5.999126 1.972318 6.155802 1.883629 6.314538 1.798721 C 6.473275 1.714158 6.634074 1.633031 6.796934 1.55603 C 6.959794 1.479029 7.124028 1.406153 7.290324 1.337402 C 7.456963 1.268307 7.624633 1.203681 7.794365 1.14318 C 7.963753 1.082336 8.134515 1.02596 8.306996 0.973709 C 8.479133 0.921458 8.652644 0.873333 8.827186 0.829676 C 9.001727 0.786019 9.1773 0.746487 9.353903 0.711424 C 9.530507 0.676361 9.707797 0.645423 9.886119 0.618954 C 10.064096 0.592485 10.242761 0.570484 10.42177 0.552953 C 10.601122 0.535421 10.780474 0.522015 10.96017 0.513421 C 11.140209 0.504483 11.319905 0.500015 11.499944 0.500015 C 11.679983 0.500015 11.860022 0.504483 12.039718 0.513421 C 12.219414 0.522015 12.399109 0.535421 12.578118 0.552953 C 12.75747 0.570484 12.935791 0.592485 13.114113 0.618954 C 13.29209 0.645423 13.469381 0.676361 13.645984 0.711424 C 13.822588 0.746487 13.99816 0.786019 14.172702 0.829676 C 14.347244 0.873333 14.520755 0.921458 14.693236 0.973709 C 14.865372 1.02596 15.036135 1.082336 15.205866 1.14318 C 15.375254 1.203681 15.543268 1.268307 15.709564 1.337402 C 15.87586 1.406153 16.040438 1.479029 16.202954 1.55603 C 16.365814 1.633031 16.526612 1.714158 16.685349 1.798721 C 16.844086 1.883629 17.000762 1.972318 17.155032 2.065132 C 17.309646 2.157602 17.461511 2.253853 17.611315 2.353886 C 17.761118 2.453919 17.908173 2.557389 18.052823 2.664641 C 18.197129 2.771892 18.33903 2.882581 18.478183 2.997052 C 18.617335 3.111179 18.753739 3.228743 18.887051 3.349401 C 19.020706 3.470403 19.150925 3.594498 19.278052 3.721688 C 19.405523 3.849221 19.529557 3.979504 19.6505 4.112881 C 19.771442 4.246258 19.888949 4.382385 20.003019 4.521606 C 20.117434 4.660827 20.228068 4.802797 20.335267 4.947175 C 20.442466 5.091896 20.546229 5.239023 20.646213 5.388556 C 20.746197 5.538433 20.842401 5.690373 20.935169 5.844719 C 21.027594 5.999409 21.116239 6.155818 21.201105 6.314632 C 21.285971 6.473447 21.367057 6.634325 21.44402 6.796921 C 21.520984 6.959517 21.593824 7.124176 21.662541 7.290553 C 21.731602 7.456931 21.796197 7.624683 21.857011 7.794154 C 21.917482 7.963626 21.974174 8.134472 22.026399 8.307037 C 22.078624 8.479258 22.126727 8.652511 22.170362 8.827139 C 22.213998 9.001766 22.25351 9.177425 22.288556 9.354115 C 22.323602 9.530462 22.354524 9.707839 22.38098 9.885904 C 22.407437 10.06397 22.429426 10.242722 22.446949 10.421819 C 22.464816 10.600915 22.477872 10.780355 22.486805 10.960139 C 22.495738 11.139923 22.499861 11.320051 22.499861 11.499835 Z M 22.499861 11.499835 " stroke="#2e3092" stroke-width="1" stroke-opacity="1" stroke-miterlimit="4"/></g><g clip-path="url(#4abd74ba47)"><path fill="#2e3092" d="M 278.535156 380.683594 C 278.535156 382.820312 278.480469 384.957031 278.375 387.09375 C 278.269531 389.230469 278.113281 391.363281 277.902344 393.492188 C 277.695312 395.617188 277.433594 397.742188 277.117188 399.855469 C 276.804688 401.972656 276.4375 404.078125 276.019531 406.175781 C 275.605469 408.273438 275.136719 410.359375 274.617188 412.433594 C 274.09375 414.507812 273.523438 416.570312 272.902344 418.617188 C 272.28125 420.664062 271.613281 422.691406 270.890625 424.707031 C 270.167969 426.71875 269.398438 428.714844 268.582031 430.691406 C 267.761719 432.667969 266.894531 434.621094 265.980469 436.554688 C 265.066406 438.488281 264.105469 440.398438 263.09375 442.285156 C 262.085938 444.171875 261.03125 446.03125 259.933594 447.863281 C 258.832031 449.699219 257.6875 451.503906 256.5 453.285156 C 255.308594 455.0625 254.078125 456.808594 252.804688 458.527344 C 251.53125 460.246094 250.214844 461.929688 248.855469 463.585938 C 247.5 465.238281 246.101562 466.855469 244.664062 468.441406 C 243.226562 470.027344 241.753906 471.574219 240.238281 473.085938 C 238.726562 474.597656 237.175781 476.074219 235.59375 477.507812 C 234.007812 478.945312 232.386719 480.34375 230.734375 481.699219 C 229.078125 483.054688 227.390625 484.371094 225.671875 485.644531 C 223.953125 486.917969 222.207031 488.148438 220.425781 489.339844 C 218.648438 490.527344 216.839844 491.671875 215.003906 492.769531 C 213.171875 493.867188 211.308594 494.921875 209.421875 495.929688 C 207.535156 496.9375 205.625 497.902344 203.691406 498.816406 C 201.753906 499.730469 199.800781 500.597656 197.824219 501.414062 C 195.847656 502.234375 193.851562 503.003906 191.835938 503.722656 C 189.820312 504.441406 187.789062 505.113281 185.742188 505.734375 C 183.695312 506.355469 181.632812 506.925781 179.558594 507.445312 C 177.480469 507.964844 175.394531 508.433594 173.296875 508.851562 C 171.199219 509.269531 169.089844 509.632812 166.972656 509.945312 C 164.855469 510.261719 162.734375 510.523438 160.605469 510.730469 C 158.476562 510.941406 156.34375 511.097656 154.203125 511.203125 C 152.066406 511.308594 149.929688 511.363281 147.789062 511.363281 C 145.648438 511.363281 143.511719 511.308594 141.375 511.203125 C 139.238281 511.097656 137.105469 510.941406 134.972656 510.730469 C 132.84375 510.523438 130.722656 510.261719 128.605469 509.945312 C 126.488281 509.632812 124.382812 509.269531 122.28125 508.851562 C 120.183594 508.433594 118.097656 507.964844 116.019531 507.445312 C 113.945312 506.925781 111.882812 506.355469 109.835938 505.734375 C 107.789062 505.113281 105.757812 504.441406 103.742188 503.722656 C 101.726562 503.003906 99.734375 502.234375 97.757812 501.414062 C 95.777344 500.597656 93.824219 499.730469 91.890625 498.816406 C 89.953125 497.902344 88.042969 496.9375 86.15625 495.929688 C 84.269531 494.921875 82.410156 493.867188 80.574219 492.769531 C 78.738281 491.671875 76.929688 490.527344 75.152344 489.339844 C 73.371094 488.148438 71.625 486.917969 69.90625 485.644531 C 68.1875 484.371094 66.5 483.054688 64.847656 481.699219 C 63.191406 480.34375 61.574219 478.945312 59.988281 477.507812 C 58.402344 476.074219 56.851562 474.597656 55.339844 473.085938 C 53.828125 471.574219 52.351562 470.027344 50.914062 468.441406 C 49.476562 466.855469 48.082031 465.238281 46.722656 463.585938 C 45.367188 461.929688 44.050781 460.246094 42.773438 458.527344 C 41.5 456.808594 40.269531 455.0625 39.078125 453.285156 C 37.890625 451.503906 36.746094 449.699219 35.648438 447.863281 C 34.546875 446.03125 33.492188 444.171875 32.484375 442.285156 C 31.476562 440.398438 30.511719 438.488281 29.597656 436.554688 C 28.683594 434.621094 27.816406 432.667969 26.996094 430.691406 C 26.179688 428.714844 25.410156 426.71875 24.6875 424.707031 C 23.96875 422.691406 23.296875 420.664062 22.675781 418.617188 C 22.054688 416.570312 21.484375 414.507812 20.964844 412.433594 C 20.445312 410.359375 19.976562 408.273438 19.558594 406.175781 C 19.140625 404.078125 18.773438 401.972656 18.460938 399.855469 C 18.148438 397.742188 17.882812 395.617188 17.675781 393.492188 C 17.464844 391.363281 17.308594 389.230469 17.203125 387.09375 C 17.097656 384.957031 17.046875 382.820312 17.046875 380.683594 C 17.046875 378.542969 17.097656 376.40625 17.203125 374.269531 C 17.308594 372.132812 17.464844 370 17.675781 367.871094 C 17.882812 365.746094 18.148438 363.621094 18.460938 361.507812 C 18.773438 359.390625 19.140625 357.285156 19.558594 355.1875 C 19.976562 353.089844 20.445312 351.003906 20.964844 348.929688 C 21.484375 346.855469 22.054688 344.792969 22.675781 342.746094 C 23.296875 340.699219 23.96875 338.671875 24.6875 336.65625 C 25.410156 334.644531 26.179688 332.648438 26.996094 330.671875 C 27.816406 328.695312 28.683594 326.742188 29.597656 324.808594 C 30.511719 322.875 31.476562 320.964844 32.484375 319.078125 C 33.492188 317.195312 34.546875 315.332031 35.648438 313.5 C 36.746094 311.664062 37.890625 309.859375 39.078125 308.078125 C 40.269531 306.300781 41.5 304.554688 42.773438 302.835938 C 44.050781 301.117188 45.367188 299.433594 46.722656 297.78125 C 48.082031 296.125 49.476562 294.507812 50.914062 292.921875 C 52.351562 291.335938 53.828125 289.789062 55.339844 288.277344 C 56.851562 286.765625 58.402344 285.289062 59.988281 283.855469 C 61.574219 282.417969 63.191406 281.023438 64.847656 279.664062 C 66.5 278.308594 68.1875 276.992188 69.90625 275.71875 C 71.625 274.445312 73.371094 273.214844 75.152344 272.027344 C 76.929688 270.835938 78.738281 269.695312 80.574219 268.59375 C 82.410156 267.496094 84.269531 266.441406 86.15625 265.433594 C 88.042969 264.425781 89.953125 263.464844 91.890625 262.546875 C 93.824219 261.632812 95.777344 260.769531 97.757812 259.949219 C 99.734375 259.128906 101.726562 258.363281 103.742188 257.640625 C 105.757812 256.921875 107.789062 256.25 109.835938 255.628906 C 111.882812 255.007812 113.945312 254.4375 116.019531 253.917969 C 118.097656 253.398438 120.183594 252.929688 122.28125 252.511719 C 124.382812 252.09375 126.488281 251.730469 128.605469 251.417969 C 130.722656 251.101562 132.84375 250.839844 134.972656 250.632812 C 137.105469 250.421875 139.238281 250.265625 141.375 250.160156 C 143.511719 250.054688 145.648438 250 147.789062 250 C 149.929688 250 152.066406 250.054688 154.203125 250.160156 C 156.34375 250.265625 158.476562 250.421875 160.605469 250.632812 C 162.734375 250.839844 164.855469 251.101562 166.972656 251.417969 C 169.089844 251.730469 171.199219 252.09375 173.296875 252.511719 C 175.394531 252.929688 177.480469 253.398438 179.558594 253.917969 C 181.632812 254.4375 183.695312 255.007812 185.742188 255.628906 C 187.789062 256.25 189.820312 256.921875 191.835938 257.640625 C 193.851562 258.363281 195.847656 259.128906 197.824219 259.949219 C 199.800781 260.769531 201.753906 261.632812 203.691406 262.546875 C 205.625 263.464844 207.535156 264.425781 209.421875 265.433594 C 211.308594 266.441406 213.171875 267.496094 215.003906 268.59375 C 216.839844 269.695312 218.648438 270.835938 220.425781 272.027344 C 222.207031 273.214844 223.953125 274.445312 225.671875 275.71875 C 227.390625 276.992188 229.078125 278.308594 230.734375 279.664062 C 232.386719 281.023438 234.007812 282.417969 235.59375 283.855469 C 237.175781 285.289062 238.726562 286.765625 240.238281 288.277344 C 241.753906 289.789062 243.226562 291.335938 244.664062 292.921875 C 246.101562 294.507812 247.5 296.125 248.855469 297.78125 C 250.214844 299.433594 251.53125 301.117188 252.804688 302.835938 C 254.078125 304.554688 255.308594 306.300781 256.5 308.078125 C 257.6875 309.859375 258.832031 311.664062 259.933594 313.5 C 261.03125 315.332031 262.085938 317.195312 263.09375 319.078125 C 264.105469 320.964844 265.066406 322.875 265.980469 324.808594 C 266.894531 326.742188 267.761719 328.695312 268.582031 330.671875 C 269.398438 332.648438 270.167969 334.644531 270.890625 336.65625 C 271.613281 338.671875 272.28125 340.699219 272.902344 342.746094 C 273.523438 344.792969 274.09375 346.855469 274.617188 348.929688 C 275.136719 351.003906 275.605469 353.089844 276.019531 355.1875 C 276.4375 357.285156 276.804688 359.390625 277.117188 361.507812 C 277.433594 363.621094 277.695312 365.746094 277.902344 367.871094 C 278.113281 370 278.269531 372.132812 278.375 374.269531 C 278.480469 376.40625 278.535156 378.542969 278.535156 380.683594 Z M 278.535156 380.683594 " fill-opacity="1" fill-rule="nonzero"/></g><g clip-path="url(#51049da9ff)"><path stroke-linecap="butt" transform="matrix(11.369048, 0, 0, 11.363467, 17.045457, 250.001873)" fill="none" stroke-linejoin="miter" d="M 22.499878 11.500163 C 22.499878 11.679947 22.495755 11.860074 22.486822 12.039858 C 22.477888 12.219642 22.464832 12.399082 22.446966 12.578179 C 22.429443 12.757275 22.407453 12.936028 22.380997 13.114093 C 22.354541 13.292158 22.323618 13.469536 22.288572 13.645882 C 22.253527 13.822572 22.214014 13.998231 22.170379 14.172859 C 22.126743 14.347486 22.078641 14.520739 22.026416 14.69296 C 21.974191 14.865525 21.917499 15.036372 21.857028 15.205843 C 21.796213 15.375314 21.731619 15.543067 21.662558 15.709444 C 21.593841 15.875822 21.521 16.04048 21.444037 16.203076 C 21.367074 16.366016 21.285987 16.52655 21.201121 16.685365 C 21.116256 16.84418 21.02761 17.000588 20.935186 17.155278 C 20.842417 17.309624 20.746213 17.461564 20.64623 17.611441 C 20.546246 17.760975 20.442483 17.908102 20.335284 18.052823 C 20.228085 18.1972 20.11745 18.339171 20.003036 18.478392 C 19.888965 18.617612 19.771459 18.753739 19.650516 18.887116 C 19.529574 19.020493 19.405539 19.150777 19.278069 19.27831 C 19.150942 19.405499 19.020379 19.529595 18.887067 19.650597 C 18.753756 19.771255 18.617352 19.888819 18.4782 20.002946 C 18.339047 20.117416 18.197146 20.228105 18.05284 20.335357 C 17.90819 20.442608 17.760791 20.546079 17.611331 20.646111 C 17.461527 20.746144 17.309662 20.842396 17.155048 20.934866 C 17.000778 21.02768 16.844103 21.116368 16.685366 21.201276 C 16.526629 21.28584 16.365831 21.366966 16.202971 21.443967 C 16.040454 21.520968 15.875876 21.593844 15.709581 21.662595 C 15.543285 21.73169 15.375271 21.796316 15.205883 21.856817 C 15.036151 21.917662 14.865389 21.974037 14.693252 22.026288 C 14.520772 22.078539 14.347261 22.126665 14.172719 22.170322 C 13.998177 22.213978 13.822604 22.25351 13.646001 22.288573 C 13.469397 22.323636 13.292107 22.354574 13.114129 22.381043 C 12.935808 22.407513 12.757487 22.429513 12.578134 22.447044 C 12.399126 22.464576 12.21943 22.477982 12.039735 22.48692 C 11.860039 22.495514 11.68 22.499983 11.49996 22.499983 C 11.319921 22.499983 11.140226 22.495514 10.960186 22.48692 C 10.780491 22.477982 10.601139 22.464576 10.421786 22.447044 C 10.242778 22.429513 10.064113 22.407513 9.886135 22.381043 C 9.707814 22.354574 9.530523 22.323636 9.35392 22.288573 C 9.177317 22.25351 9.001744 22.213978 8.827202 22.170322 C 8.65266 22.126665 8.479149 22.078539 8.307012 22.026288 C 8.134532 21.974037 7.96377 21.917662 7.794381 21.856817 C 7.62465 21.796316 7.456636 21.73169 7.29034 21.662595 C 7.124044 21.593844 6.959467 21.520968 6.79695 21.443967 C 6.63409 21.366966 6.473292 21.28584 6.314555 21.201276 C 6.155818 21.116368 5.999143 21.02768 5.844872 20.934866 C 5.690602 20.842396 5.538393 20.746144 5.38859 20.646111 C 5.23913 20.546079 5.092075 20.442608 4.947425 20.335357 C 4.802775 20.228105 4.660874 20.117416 4.521721 20.002946 C 4.382569 19.888819 4.246165 19.771255 4.112854 19.650597 C 3.979542 19.529595 3.848979 19.405499 3.721852 19.27831 C 3.594382 19.150777 3.470347 19.020493 3.349405 18.887116 C 3.228806 18.753739 3.110956 18.617612 2.996885 18.478392 C 2.882814 18.339171 2.771836 18.1972 2.664637 18.052823 C 2.557438 17.908102 2.454019 17.760975 2.353691 17.611441 C 2.253708 17.461564 2.157504 17.309624 2.065079 17.155278 C 1.972311 17.000588 1.883665 16.84418 1.798799 16.685365 C 1.713934 16.52655 1.633191 16.366016 1.556227 16.203076 C 1.479264 16.04048 1.40608 15.875822 1.337363 15.709444 C 1.268302 15.543067 1.203708 15.375314 1.142893 15.205843 C 1.082422 15.036372 1.026074 14.865525 0.973505 14.69296 C 0.92128 14.520739 0.873521 14.347486 0.829542 14.172859 C 0.785907 13.998231 0.746394 13.822572 0.711349 13.645882 C 0.676303 13.469536 0.64538 13.292158 0.618924 13.114093 C 0.592811 12.936028 0.570478 12.757275 0.552955 12.578179 C 0.535432 12.399082 0.522032 12.219642 0.513099 12.039858 C 0.50451 11.860074 0.500043 11.679947 0.500043 11.500163 C 0.500043 11.320035 0.50451 11.139907 0.513099 10.960123 C 0.522032 10.780339 0.535432 10.600899 0.552955 10.421803 C 0.570478 10.242706 0.592811 10.063954 0.618924 9.885889 C 0.64538 9.707823 0.676303 9.530446 0.711349 9.354099 C 0.746394 9.177409 0.785907 9.00175 0.829542 8.827123 C 0.873521 8.652495 0.92128 8.479243 0.973505 8.307021 C 1.026074 8.134456 1.082422 7.96361 1.142893 7.794139 C 1.203708 7.624667 1.268302 7.456915 1.337363 7.290537 C 1.40608 7.12416 1.479264 6.959501 1.556227 6.796905 C 1.633191 6.634309 1.713934 6.473432 1.798799 6.314617 C 1.883665 6.155802 1.972311 5.999393 2.065079 5.844703 C 2.157504 5.690357 2.253708 5.538418 2.353691 5.388884 C 2.454019 5.239007 2.557438 5.09188 2.664637 4.947159 C 2.771836 4.802782 2.882814 4.660811 2.996885 4.52159 C 3.110956 4.382369 3.228806 4.246242 3.349405 4.112865 C 3.470347 3.979488 3.594382 3.849205 3.721852 3.721672 C 3.848979 3.594482 3.979542 3.470387 4.112854 3.349385 C 4.246165 3.228727 4.382569 3.111163 4.521721 2.997036 C 4.660874 2.882566 4.802775 2.771876 4.947425 2.664625 C 5.092075 2.557373 5.23913 2.453903 5.38859 2.35387 C 5.538393 2.253837 5.690602 2.157586 5.844872 2.065116 C 5.999143 1.972302 6.155818 1.883613 6.314555 1.798706 C 6.473292 1.714142 6.63409 1.633016 6.79695 1.556015 C 6.959467 1.479013 7.124044 1.406137 7.29034 1.337386 C 7.456636 1.268292 7.62465 1.203666 7.794381 1.143165 C 7.96377 1.08232 8.134532 1.025944 8.307012 0.973693 C 8.479149 0.921443 8.65266 0.873317 8.827202 0.82966 C 9.001744 0.786003 9.177317 0.746471 9.35392 0.711408 C 9.530523 0.676345 9.707814 0.645407 9.886135 0.618938 C 10.064113 0.592813 10.242778 0.570469 10.421786 0.552937 C 10.601139 0.535406 10.780491 0.521999 10.960186 0.513405 C 11.140226 0.504468 11.319921 0.499999 11.49996 0.499999 C 11.68 0.499999 11.860039 0.504468 12.039735 0.513405 C 12.21943 0.521999 12.399126 0.535406 12.578134 0.552937 C 12.757487 0.570469 12.935808 0.592813 13.114129 0.618938 C 13.292107 0.645407 13.469397 0.676345 13.646001 0.711408 C 13.822604 0.746471 13.998177 0.786003 14.172719 0.82966 C 14.347261 0.873317 14.520772 0.921443 14.693252 0.973693 C 14.865389 1.025944 15.036151 1.08232 15.205883 1.143165 C 15.375271 1.203666 15.543285 1.268292 15.709581 1.337386 C 15.875876 1.406137 16.040454 1.479013 16.202971 1.556015 C 16.365831 1.633016 16.526629 1.714142 16.685366 1.798706 C 16.844103 1.883613 17.000778 1.972302 17.155048 2.065116 C 17.309662 2.157586 17.461527 2.253837 17.611331 2.35387 C 17.760791 2.453903 17.90819 2.557373 18.05284 2.664625 C 18.197146 2.771876 18.339047 2.882566 18.4782 2.997036 C 18.617352 3.111163 18.753756 3.228727 18.887067 3.349385 C 19.020379 3.470387 19.150942 3.594482 19.278069 3.721672 C 19.405539 3.849205 19.529574 3.979488 19.650516 4.112865 C 19.771459 4.246242 19.888965 4.382369 20.003036 4.52159 C 20.11745 4.660811 20.228085 4.802782 20.335284 4.947159 C 20.442483 5.09188 20.546246 5.239007 20.64623 5.388884 C 20.746213 5.538418 20.842417 5.690357 20.935186 5.844703 C 21.02761 5.999393 21.116256 6.155802 21.201121 6.314617 C 21.285987 6.473432 21.367074 6.634309 21.444037 6.796905 C 21.521 6.959501 21.593841 7.12416 21.662558 7.290537 C 21.731619 7.456915 21.796213 7.624667 21.857028 7.794139 C 21.917499 7.96361 21.974191 8.134456 22.026416 8.307021 C 22.078641 8.479243 22.126743 8.652495 22.170379 8.827123 C 22.214014 9.00175 22.253527 9.177409 22.288572 9.354099 C 22.323618 9.530446 22.354541 9.707823 22.380997 9.885889 C 22.407453 10.063954 22.429443 10.242706 22.446966 10.421803 C 22.464832 10.600899 22.477888 10.780339 22.486822 10.960123 C 22.495411 11.139907 22.499878 11.320035 22.499878 11.500163 Z M 22.499878 11.500163 " stroke="#2e3092" stroke-width="1" stroke-opacity="1" stroke-miterlimit="4"/></g><g clip-path="url(#59cb085893)"><path fill="#2e3092" d="M 733.296875 619.316406 C 733.296875 621.453125 733.242188 623.589844 733.136719 625.726562 C 733.03125 627.863281 732.875 629.996094 732.664062 632.125 C 732.457031 634.25 732.195312 636.375 731.878906 638.488281 C 731.566406 640.605469 731.199219 642.710938 730.785156 644.808594 C 730.367188 646.90625 729.898438 648.992188 729.378906 651.066406 C 728.855469 653.140625 728.285156 655.203125 727.664062 657.25 C 727.042969 659.296875 726.375 661.324219 725.652344 663.339844 C 724.933594 665.351562 724.160156 667.347656 723.34375 669.324219 C 722.523438 671.300781 721.65625 673.253906 720.742188 675.1875 C 719.828125 677.121094 718.867188 679.03125 717.855469 680.917969 C 716.847656 682.800781 715.792969 684.664062 714.695312 686.496094 C 713.59375 688.332031 712.449219 690.136719 711.261719 691.917969 C 710.074219 693.695312 708.839844 695.441406 707.566406 697.160156 C 706.292969 698.878906 704.976562 700.5625 703.617188 702.21875 C 702.261719 703.871094 700.863281 705.488281 699.425781 707.074219 C 697.988281 708.660156 696.515625 710.207031 695 711.71875 C 693.488281 713.230469 691.9375 714.707031 690.355469 716.140625 C 688.769531 717.578125 687.148438 718.976562 685.496094 720.332031 C 683.839844 721.6875 682.152344 723.003906 680.433594 724.277344 C 678.71875 725.550781 676.96875 726.78125 675.1875 727.972656 C 673.410156 729.160156 671.601562 730.304688 669.765625 731.402344 C 667.933594 732.5 666.070312 733.554688 664.183594 734.5625 C 662.296875 735.570312 660.386719 736.535156 658.453125 737.449219 C 656.515625 738.363281 654.5625 739.230469 652.585938 740.046875 C 650.609375 740.867188 648.613281 741.636719 646.597656 742.355469 C 644.582031 743.074219 642.550781 743.746094 640.503906 744.367188 C 638.457031 744.988281 636.394531 745.558594 634.320312 746.078125 C 632.242188 746.597656 630.15625 747.066406 628.058594 747.484375 C 625.960938 747.902344 623.851562 748.265625 621.734375 748.578125 C 619.617188 748.894531 617.496094 749.15625 615.367188 749.363281 C 613.238281 749.574219 611.105469 749.730469 608.964844 749.835938 C 606.828125 749.941406 604.691406 749.996094 602.550781 749.996094 C 600.410156 749.996094 598.273438 749.941406 596.136719 749.835938 C 594 749.730469 591.867188 749.574219 589.734375 749.363281 C 587.605469 749.15625 585.484375 748.894531 583.367188 748.578125 C 581.25 748.265625 579.144531 747.902344 577.042969 747.484375 C 574.945312 747.066406 572.859375 746.597656 570.785156 746.078125 C 568.707031 745.558594 566.644531 744.988281 564.597656 744.367188 C 562.550781 743.746094 560.519531 743.074219 558.503906 742.355469 C 556.492188 741.636719 554.496094 740.867188 552.519531 740.046875 C 550.539062 739.230469 548.585938 738.363281 546.652344 737.449219 C 544.71875 736.535156 542.804688 735.570312 540.917969 734.5625 C 539.03125 733.554688 537.171875 732.5 535.335938 731.402344 C 533.5 730.304688 531.691406 729.160156 529.914062 727.972656 C 528.136719 726.78125 526.386719 725.550781 524.667969 724.277344 C 522.949219 723.003906 521.261719 721.6875 519.609375 720.332031 C 517.953125 718.976562 516.335938 717.578125 514.75 716.140625 C 513.164062 714.707031 511.613281 713.230469 510.101562 711.71875 C 508.589844 710.207031 507.113281 708.660156 505.675781 707.074219 C 504.238281 705.488281 502.84375 703.871094 501.484375 702.21875 C 500.128906 700.5625 498.8125 698.878906 497.535156 697.160156 C 496.261719 695.441406 495.03125 693.695312 493.839844 691.917969 C 492.652344 690.136719 491.507812 688.332031 490.410156 686.496094 C 489.308594 684.664062 488.253906 682.800781 487.246094 680.917969 C 486.238281 679.03125 485.273438 677.121094 484.359375 675.1875 C 483.445312 673.253906 482.578125 671.300781 481.757812 669.324219 C 480.941406 667.347656 480.171875 665.351562 479.449219 663.339844 C 478.730469 661.324219 478.058594 659.296875 477.4375 657.25 C 476.816406 655.203125 476.246094 653.140625 475.726562 651.066406 C 475.207031 648.992188 474.738281 646.90625 474.320312 644.808594 C 473.902344 642.710938 473.535156 640.605469 473.222656 638.488281 C 472.910156 636.375 472.648438 634.25 472.4375 632.125 C 472.226562 629.996094 472.070312 627.863281 471.964844 625.726562 C 471.859375 623.589844 471.808594 621.453125 471.808594 619.316406 C 471.808594 617.175781 471.859375 615.039062 471.964844 612.902344 C 472.070312 610.765625 472.226562 608.632812 472.4375 606.503906 C 472.648438 604.378906 472.910156 602.253906 473.222656 600.140625 C 473.535156 598.023438 473.902344 595.917969 474.320312 593.820312 C 474.738281 591.722656 475.207031 589.636719 475.726562 587.5625 C 476.246094 585.488281 476.816406 583.425781 477.4375 581.378906 C 478.058594 579.332031 478.730469 577.304688 479.449219 575.289062 C 480.171875 573.277344 480.941406 571.28125 481.757812 569.304688 C 482.578125 567.328125 483.445312 565.375 484.359375 563.441406 C 485.273438 561.507812 486.238281 559.597656 487.246094 557.710938 C 488.253906 555.828125 489.308594 553.964844 490.410156 552.132812 C 491.507812 550.296875 492.652344 548.492188 493.839844 546.710938 C 495.03125 544.933594 496.261719 543.1875 497.535156 541.46875 C 498.8125 539.75 500.128906 538.066406 501.484375 536.410156 C 502.84375 534.757812 504.238281 533.140625 505.675781 531.554688 C 507.113281 529.96875 508.589844 528.421875 510.101562 526.910156 C 511.613281 525.398438 513.164062 523.921875 514.75 522.488281 C 516.335938 521.050781 517.953125 519.65625 519.609375 518.296875 C 521.261719 516.941406 522.949219 515.625 524.667969 514.351562 C 526.386719 513.078125 528.136719 511.847656 529.914062 510.65625 C 531.691406 509.46875 533.5 508.328125 535.335938 507.226562 C 537.171875 506.128906 539.03125 505.074219 540.917969 504.066406 C 542.804688 503.058594 544.71875 502.097656 546.652344 501.179688 C 548.585938 500.265625 550.539062 499.402344 552.519531 498.582031 C 554.496094 497.761719 556.492188 496.996094 558.503906 496.273438 C 560.519531 495.554688 562.550781 494.882812 564.597656 494.261719 C 566.644531 493.640625 568.707031 493.070312 570.785156 492.550781 C 572.859375 492.03125 574.945312 491.5625 577.042969 491.144531 C 579.144531 490.726562 581.25 490.363281 583.367188 490.050781 C 585.484375 489.734375 587.605469 489.472656 589.734375 489.265625 C 591.867188 489.054688 594 488.898438 596.136719 488.792969 C 598.273438 488.6875 600.410156 488.632812 602.550781 488.632812 C 604.691406 488.632812 606.828125 488.6875 608.964844 488.792969 C 611.105469 488.898438 613.238281 489.054688 615.367188 489.265625 C 617.496094 489.472656 619.617188 489.734375 621.734375 490.050781 C 623.851562 490.363281 625.960938 490.726562 628.058594 491.144531 C 630.15625 491.5625 632.242188 492.03125 634.320312 492.550781 C 636.394531 493.070312 638.457031 493.640625 640.503906 494.261719 C 642.550781 494.882812 644.582031 495.554688 646.597656 496.273438 C 648.613281 496.996094 650.609375 497.761719 652.585938 498.582031 C 654.5625 499.402344 656.515625 500.265625 658.453125 501.179688 C 660.386719 502.097656 662.296875 503.058594 664.183594 504.066406 C 666.070312 505.074219 667.933594 506.128906 669.765625 507.226562 C 671.601562 508.328125 673.410156 509.46875 675.1875 510.65625 C 676.96875 511.847656 678.71875 513.078125 680.433594 514.351562 C 682.152344 515.625 683.839844 516.941406 685.496094 518.296875 C 687.148438 519.65625 688.769531 521.050781 690.355469 522.488281 C 691.9375 523.921875 693.488281 525.398438 695 526.910156 C 696.515625 528.421875 697.988281 529.96875 699.425781 531.554688 C 700.863281 533.140625 702.261719 534.757812 703.617188 536.410156 C 704.976562 538.066406 706.292969 539.75 707.566406 541.46875 C 708.839844 543.1875 710.074219 544.933594 711.261719 546.710938 C 712.449219 548.492188 713.59375 550.296875 714.695312 552.132812 C 715.792969 553.964844 716.847656 555.828125 717.855469 557.710938 C 718.867188 559.597656 719.828125 561.507812 720.742188 563.441406 C 721.65625 565.375 722.523438 567.328125 723.34375 569.304688 C 724.160156 571.28125 724.933594 573.277344 725.652344 575.289062 C 726.375 577.304688 727.042969 579.332031 727.664062 581.378906 C 728.285156 583.425781 728.855469 585.488281 729.378906 587.5625 C 729.898438 589.636719 730.367188 591.722656 730.785156 593.820312 C 731.199219 595.917969 731.566406 598.023438 731.878906 600.140625 C 732.195312 602.253906 732.457031 604.378906 732.664062 606.503906 C 732.875 608.632812 733.03125 610.765625 733.136719 612.902344 C 733.242188 615.039062 733.296875 617.175781 733.296875 619.316406 Z M 733.296875 619.316406 " fill-opacity="1" fill-rule="nonzero"/></g><g clip-path="url(#31e65a79a3)"><path stroke-linecap="butt" transform="matrix(11.369048, 0, 0, 11.363467, 471.807364, 488.634668)" fill="none" stroke-linejoin="miter" d="M 22.499861 11.500164 C 22.499861 11.679948 22.495738 11.860076 22.486805 12.03986 C 22.477872 12.219644 22.464816 12.399084 22.446949 12.57818 C 22.429426 12.757277 22.407437 12.936029 22.38098 13.114095 C 22.354524 13.29216 22.323602 13.469537 22.288556 13.645884 C 22.25351 13.822574 22.213998 13.998233 22.170362 14.17286 C 22.126727 14.347488 22.078624 14.52074 22.026399 14.692962 C 21.974174 14.865527 21.917482 15.036373 21.857011 15.205844 C 21.796197 15.375316 21.731602 15.543068 21.662541 15.709446 C 21.593824 15.875823 21.520984 16.040482 21.44402 16.203078 C 21.367057 16.365674 21.285971 16.526552 21.201105 16.685366 C 21.116239 16.844181 21.027594 17.00059 20.935169 17.15528 C 20.842401 17.309626 20.746197 17.461566 20.646213 17.611443 C 20.546229 17.760976 20.442466 17.908103 20.335267 18.052824 C 20.228068 18.197201 20.117434 18.339172 20.003019 18.478393 C 19.888949 18.617614 19.771442 18.753741 19.6505 18.887118 C 19.529557 19.020495 19.405523 19.150778 19.278052 19.278311 C 19.150925 19.405501 19.020706 19.529596 18.887051 19.650598 C 18.753739 19.771256 18.617335 19.88882 18.478183 20.002947 C 18.33903 20.117418 18.197129 20.228107 18.052823 20.335358 C 17.908173 20.44261 17.761118 20.54608 17.611315 20.646113 C 17.461511 20.746146 17.309646 20.842397 17.155032 20.934867 C 17.000762 21.027681 16.844086 21.11637 16.685349 21.201277 C 16.526612 21.285841 16.365814 21.366967 16.202954 21.443969 C 16.040438 21.52097 15.87586 21.593846 15.709564 21.662597 C 15.543268 21.731692 15.375254 21.796318 15.205866 21.856818 C 15.036135 21.917663 14.865372 21.974039 14.693236 22.02629 C 14.520755 22.078541 14.347244 22.126666 14.172702 22.170323 C 13.99816 22.21398 13.822588 22.253512 13.645984 22.288575 C 13.469381 22.323638 13.29209 22.354576 13.114113 22.381045 C 12.935791 22.407514 12.75747 22.429514 12.578118 22.447046 C 12.399109 22.464578 12.219414 22.477984 12.039718 22.486922 C 11.860022 22.495515 11.679983 22.499984 11.499944 22.499984 C 11.319905 22.499984 11.140209 22.495515 10.96017 22.486922 C 10.780474 22.477984 10.601122 22.464578 10.42177 22.447046 C 10.242761 22.429514 10.064096 22.407514 9.886119 22.381045 C 9.707797 22.354576 9.530507 22.323638 9.353903 22.288575 C 9.1773 22.253512 9.001727 22.21398 8.827186 22.170323 C 8.652644 22.126666 8.479133 22.078541 8.306996 22.02629 C 8.134515 21.974039 7.963753 21.917663 7.794365 21.856818 C 7.624633 21.796318 7.456963 21.731692 7.290324 21.662597 C 7.124028 21.593846 6.959794 21.52097 6.796934 21.443969 C 6.634074 21.366967 6.473275 21.285841 6.314538 21.201277 C 6.155802 21.11637 5.999126 21.027681 5.844856 20.934867 C 5.690586 20.842397 5.538377 20.746146 5.388573 20.646113 C 5.239113 20.54608 5.092058 20.44261 4.947408 20.335358 C 4.802758 20.228107 4.660857 20.117418 4.521705 20.002947 C 4.382552 19.88882 4.246149 19.771256 4.112837 19.650598 C 3.979525 19.529596 3.848963 19.405501 3.721836 19.278311 C 3.594365 19.150778 3.47033 19.020495 3.349388 18.887118 C 3.228789 18.753741 3.110939 18.617614 2.996868 18.478393 C 2.882798 18.339172 2.771819 18.197201 2.66462 18.052824 C 2.557422 17.908103 2.454002 17.760976 2.353675 17.611443 C 2.253691 17.461566 2.157487 17.309626 2.065062 17.15528 C 1.972294 17.00059 1.883649 16.844181 1.798783 16.685366 C 1.713917 16.526552 1.633174 16.365674 1.556211 16.203078 C 1.479248 16.040482 1.406064 15.875823 1.337346 15.709446 C 1.268285 15.543068 1.203691 15.375316 1.142876 15.205844 C 1.082405 15.036373 1.026057 14.865527 0.973488 14.692962 C 0.921263 14.52074 0.873505 14.347488 0.829526 14.17286 C 0.78589 13.998233 0.746378 13.822574 0.711332 13.645884 C 0.676286 13.469537 0.645363 13.29216 0.618907 13.114095 C 0.592795 12.936029 0.570462 12.757277 0.552939 12.57818 C 0.535416 12.399084 0.522016 12.219644 0.513083 12.03986 C 0.504493 11.860076 0.500026 11.679948 0.500026 11.500164 C 0.500026 11.320037 0.504493 11.139909 0.513083 10.960125 C 0.522016 10.780341 0.535416 10.600901 0.552939 10.421804 C 0.570462 10.242708 0.592795 10.063955 0.618907 9.88589 C 0.645363 9.707825 0.676286 9.530447 0.711332 9.354101 C 0.746378 9.177411 0.78589 9.001752 0.829526 8.827124 C 0.873505 8.652497 0.921263 8.479244 0.973488 8.307023 C 1.026057 8.134458 1.082405 7.963612 1.142876 7.79414 C 1.203691 7.624669 1.268285 7.456917 1.337346 7.290539 C 1.406064 7.124162 1.479248 6.959503 1.556211 6.796907 C 1.633174 6.634311 1.713917 6.473433 1.798783 6.314618 C 1.883649 6.155803 1.972294 5.999395 2.065062 5.844705 C 2.157487 5.690359 2.253691 5.538419 2.353675 5.388886 C 2.454002 5.239008 2.557422 5.091881 2.66462 4.94716 C 2.771819 4.802783 2.882798 4.660812 2.996868 4.521592 C 3.110939 4.382371 3.228789 4.246244 3.349388 4.112867 C 3.47033 3.97949 3.594365 3.849207 3.721836 3.721673 C 3.848963 3.594484 3.979525 3.470388 4.112837 3.349387 C 4.246149 3.228729 4.382552 3.111164 4.521705 2.997038 C 4.660857 2.882567 4.802758 2.771878 4.947408 2.664626 C 5.092058 2.557375 5.239113 2.453904 5.388573 2.353872 C 5.538377 2.253839 5.690586 2.157588 5.844856 2.065117 C 5.999126 1.972304 6.155802 1.883615 6.314538 1.798707 C 6.473275 1.714143 6.634074 1.633017 6.796934 1.556016 C 6.959794 1.479015 7.124028 1.406139 7.290324 1.337388 C 7.456963 1.268293 7.624633 1.203667 7.794365 1.143166 C 7.963753 1.082322 8.134515 1.025946 8.306996 0.973695 C 8.479133 0.921444 8.652644 0.873318 8.827186 0.829662 C 9.001727 0.786005 9.1773 0.746473 9.353903 0.71141 C 9.530507 0.676347 9.707797 0.645409 9.886119 0.61894 C 10.064096 0.592814 10.242761 0.57047 10.42177 0.552939 C 10.601122 0.535407 10.780474 0.522001 10.96017 0.513407 C 11.140209 0.504469 11.319905 0.5 11.499944 0.5 C 11.679983 0.5 11.860022 0.504469 12.039718 0.513407 C 12.219414 0.522001 12.399109 0.535407 12.578118 0.552939 C 12.75747 0.57047 12.935791 0.592814 13.114113 0.61894 C 13.29209 0.645409 13.469381 0.676347 13.645984 0.71141 C 13.822588 0.746473 13.99816 0.786005 14.172702 0.829662 C 14.347244 0.873318 14.520755 0.921444 14.693236 0.973695 C 14.865372 1.025946 15.036135 1.082322 15.205866 1.143166 C 15.375254 1.203667 15.543268 1.268293 15.709564 1.337388 C 15.87586 1.406139 16.040438 1.479015 16.202954 1.556016 C 16.365814 1.633017 16.526612 1.714143 16.685349 1.798707 C 16.844086 1.883615 17.000762 1.972304 17.155032 2.065117 C 17.309646 2.157588 17.461511 2.253839 17.611315 2.353872 C 17.761118 2.453904 17.908173 2.557375 18.052823 2.664626 C 18.197129 2.771878 18.33903 2.882567 18.478183 2.997038 C 18.617335 3.111164 18.753739 3.228729 18.887051 3.349387 C 19.020706 3.470388 19.150925 3.594484 19.278052 3.721673 C 19.405523 3.849207 19.529557 3.97949 19.6505 4.112867 C 19.771442 4.246244 19.888949 4.382371 20.003019 4.521592 C 20.117434 4.660812 20.228068 4.802783 20.335267 4.94716 C 20.442466 5.091881 20.546229 5.239008 20.646213 5.388886 C 20.746197 5.538419 20.842401 5.690359 20.935169 5.844705 C 21.027594 5.999395 21.116239 6.155803 21.201105 6.314618 C 21.285971 6.473433 21.367057 6.634311 21.44402 6.796907 C 21.520984 6.959503 21.593824 7.124162 21.662541 7.290539 C 21.731602 7.456917 21.796197 7.624669 21.857011 7.79414 C 21.917482 7.963612 21.974174 8.134458 22.026399 8.307023 C 22.078624 8.479244 22.126727 8.652497 22.170362 8.827124 C 22.213998 9.001752 22.25351 9.177411 22.288556 9.354101 C 22.323602 9.530447 22.354524 9.707825 22.38098 9.88589 C 22.407437 10.063955 22.429426 10.242708 22.446949 10.421804 C 22.464816 10.600901 22.477872 10.780341 22.486805 10.960125 C 22.495738 11.139909 22.499861 11.320037 22.499861 11.500164 Z M 22.499861 11.500164 " stroke="#2e3092" stroke-width="1" stroke-opacity="1" stroke-miterlimit="4"/></g><path stroke-linecap="butt" transform="matrix(11.369048, 0, 0, 11.363467, 255.795458, 181.821062)" fill="none" stroke-linejoin="miter" d="M 21.000123 -0.0000659164 L 0.00012462 12.000082 " stroke="#2e3092" stroke-width="1" stroke-opacity="1" stroke-miterlimit="4"/><path stroke-linecap="butt" transform="matrix(11.369048, 0, 0, 11.363467, 261.47999, 437.499071)" fill="none" stroke-linejoin="miter" d="M 0.0000421181 0.0000817814 L 19.999861 10.999902 " stroke="#2e3092" stroke-width="1" stroke-opacity="1" stroke-miterlimit="4"/></svg>