<svg xmlns="http://www.w3.org/2000/svg" xmlns:xlink="http://www.w3.org/1999/xlink" width="1000" zoomAndPan="magnify" viewBox="0 0 750 749.999995" height="1000" preserveAspectRatio="xMidYMid meet" version="1.0"><defs><clipPath id="1043416df5"><path d="M 0 0.00390625 L 749.996094 0.00390625 L 749.996094 750 L 0 750 Z M 0 0.00390625 " clip-rule="nonzero"/></clipPath></defs><g clip-path="url(#1043416df5)"><path stroke-linecap="round" transform="matrix(1.464839, 0, 0, -1.464839, 21.972592, 375.001115)" fill="none" stroke-linejoin="round" d="M 0.0000438757 0.000761397 C 0.0000438757 -132.548972 108.451038 -240.999966 241.000771 -240.999966 C 373.547838 -240.999966 481.998832 -132.548972 481.998832 0.000761397 C 481.998832 132.547828 373.547838 240.998822 241.000771 240.998822 C 108.451038 240.998822 0.0000438757 132.547828 0.0000438757 0.000761397 Z M 0.0000438757 0.000761397 " stroke="#2e3092" stroke-width="30" stroke-opacity="1" stroke-miterlimit="10"/></g><path stroke-linecap="round" transform="matrix(1.464839, 0, 0, -1.464839, 282.476679, 269.097633)" fill="none" stroke-linejoin="round" d="M -0.0000797248 -0.0000156768 C -20.125474 -17.597402 -32.837512 -43.464147 -32.837512 -72.296234 C -32.837512 -125.317727 10.141284 -168.296524 63.162778 -168.296524 C 116.181604 -168.296524 159.163067 -125.317727 159.163067 -72.296234 C 159.163067 -43.720148 146.67503 -18.058737 126.85897 -0.472017 " stroke="#2e3092" stroke-width="30" stroke-opacity="1" stroke-miterlimit="10"/><path stroke-linecap="round" transform="matrix(1.464839, 0, 0, -1.464839, 374.998871, 199.220401)" fill="none" stroke-linejoin="round" d="M 0.000770887 0.00112688 L 0.000770887 -79.999115 " stroke="#2e3092" stroke-width="30" stroke-opacity="1" stroke-miterlimit="10"/></svg>