<svg id="Capa_1" enable-background="new 0 0 512.002 512.002" height="512" viewBox="0 0 512.002 512.002" width="512"
     xmlns="http://www.w3.org/2000/svg">
    <g>
        <path stroke="#2E3092" fill="#2E3092" d="m240.9 170.656v-100.408c0-5.522-4.477-10-10-10h-170.695c-5.522 0-10 4.478-10 10v100.408c0 5.522 4.478 10 10 10h170.695c5.522 0 10-4.478 10-10zm-20-10h-150.695v-80.408h150.695z"/>
        <path stroke="#2E3092" fill="#2E3092" d="m281.103 180.656h170.694c5.523 0 10-4.478 10-10v-100.408c0-5.522-4.477-10-10-10h-170.694c-5.522 0-10 4.478-10 10v100.408c0 5.522 4.477 10 10 10zm10-100.408h150.694v80.408h-150.694z"/>
        <path stroke="#2E3092" fill="#2E3092" d="m500.352.139c-162.265 27.132-332.763 26.05-488.703 0-6.08-1.018-11.648 3.676-11.648 9.863v461.878c0 6.168 5.545 10.884 11.648 9.863 51.58-8.614 105.033-14.507 159.047-17.537v37.795c0 5.523 4.478 10 10 10h321.306c5.523 0 10-4.477 10-10 0-8.779 0-467.119 0-492-.001-6.147-5.516-10.877-11.65-9.862zm-480.351 459.984v-438.362c150.632 23.875 314.615 24.98 472 .002v319.627h-20.163v-5.062c0-25.363-14.561-47.374-35.754-58.157 6.606-7.155 10.651-16.707 10.651-27.189 0-22.123-17.999-40.122-40.122-40.122s-40.122 17.999-40.122 40.122c0 10.482 4.045 20.035 10.651 27.189-21.193 10.783-35.754 32.794-35.754 58.157v5.062h-20.163v-5.062c0-25.363-14.561-47.374-35.754-58.157 6.606-7.155 10.651-16.707 10.651-27.189 0-22.123-17.999-40.122-40.122-40.122s-40.122 17.999-40.122 40.122c0 10.482 4.045 20.035 10.651 27.189-21.193 10.783-35.754 32.794-35.754 58.157v5.062h-10.081c-5.522 0-10 4.477-10 10v92.786c-51.067 2.829-101.657 8.18-150.693 15.947zm386.613-189.019c-11.096 0-20.122-9.026-20.122-20.122s9.026-20.122 20.122-20.122 20.122 9.026 20.122 20.122-9.027 20.122-20.122 20.122zm0 20.001c24.936 0 45.225 20.287 45.225 45.224v5.062h-90.449v-5.062c-.001-24.937 20.287-45.224 45.224-45.224zm-150.613-20.001c-11.096 0-20.122-9.026-20.122-20.122s9.026-20.122 20.122-20.122 20.122 9.026 20.122 20.122-9.026 20.122-20.122 20.122zm0 20.001c24.936 0 45.225 20.287 45.225 45.224v5.062h-90.449v-5.062c0-24.937 20.288-45.224 45.224-45.224zm236 200.897h-301.305v-130.612h301.306v130.612z"/>
    </g>
</svg>