<svg xmlns="http://www.w3.org/2000/svg" width="81.057" height="57.096" viewBox="0 0 81.057 57.096">
  <g id="Group_3" transform="translate(-279.421 -183.5)">
    <path id="Path_3" d="M-640.023,1527h-55.984s-9.265,5.036-11.473,5.036-12.341.736-12.52,0,0,45.09,0,45.09,11.089,1.111,12.52,1.656,9.724,3.98,11.473,4.2,55.984,0,55.984,0Z" transform="translate(1000 -1343)" fill="#2E3092" stroke="#FEFE00" stroke-width="1"/>
    <path id="Path_4" d="M-705.66,1549.549h29.294v-9.365h11v-9.257h22v7.623h-12.645s-2.383.544-2.274,1.634a2.324,2.324,0,0,0,2.274,1.851c1.1.109,12.645,0,12.645,0v3.812h-12.645s-2.274.762-2.274,1.742,1.281,1.851,2.274,1.96,12.645,0,12.645,0v3.594h-12.645s-2.274.871-2.274,1.742,1.5,2.069,2.274,2.069h12.645v3.376h-12.645s-2.274,1.089-2.274,1.96,1.5,1.96,2.274,1.96h12.645v3.921h-12.645s-2.165-.218-2.274,1.416,1.96,1.851,2.274,1.851h12.645v7.623h-22v-9.474h-11v-9.257H-705.66Z" transform="translate(999.996 -1343.001)" fill="#FEFE00" stroke-width="1"/>
  </g>
</svg>
