<svg xmlns="http://www.w3.org/2000/svg" width="76.272" height="66.793" viewBox="0 0 76.272 66.793">
  <g id="Group_3" transform="translate(-232.728 -240)">
    <g id="Rectangle_11" transform="translate(252 240)" fill="#2E3092" stroke="#FEFE00" stroke-width="1">
      <rect width="57" height="37" rx="8" stroke="none"/>
      <rect x="0.5" y="0.5" width="56" height="36" rx="7.5" fill="none"/>
    </g>
    <path id="Path_3"  d="M-725.284,1619.643c.645,2.578,2.87,2.12,3.322,3.357,1.19,3.237-.344,8.078-.6,9.964-.305,2.25-1.119,4.35,1.526,8.505s4.653,4.2,5.607,4.577,13.273,3.394,13.54,3.242,1.645.749,2.25-2.287-.687-3.128-1.487-3.281-13.082-3.318-13.082-3.471-1.456-.079-1.6-4.095-.455-12.572.384-12.611,3.852-2.9,3.852-3.7" transform="translate(1000 -1343)" fill="#2E3092" stroke="#FEFE00" stroke-width="1"/>
    <path id="Path_4" d="M-766.646,1591c-.258,1.14,0,22.475,0,22.475s.258,2.063,1.483,2.643,10.442-3.739,11.28-4.448,1.031-2.25,1.031-4.67.451-10.864,0-12.6a5.136,5.136,0,0,0-2.836-3.4c-1.289-.665-6.961-4.274-8.25-3.694A6.228,6.228,0,0,0-766.646,1591Z" transform="translate(1000 -1343)" fill="#2E3092" stroke="#FEFE00" stroke-width="1"/>
  </g>
</svg>
