<svg xmlns="http://www.w3.org/2000/svg" xmlns:xlink="http://www.w3.org/1999/xlink" width="1000" zoomAndPan="magnify" viewBox="0 0 750 749.999995" height="1000" preserveAspectRatio="xMidYMid meet" version="1.0"><path fill="#FEFE00" d="M 745.875 297.253906 C 745 295.660156 743.953125 294.183594 742.742188 292.828125 C 741.527344 291.46875 740.175781 290.265625 738.6875 289.21875 C 737.199219 288.171875 735.613281 287.304688 733.925781 286.617188 C 732.242188 285.929688 730.5 285.445312 728.699219 285.15625 L 661.460938 274.300781 L 687.132812 214.417969 C 687.441406 213.699219 687.714844 212.964844 687.953125 212.214844 C 688.1875 211.46875 688.386719 210.710938 688.550781 209.941406 C 688.714844 209.175781 688.839844 208.402344 688.925781 207.621094 C 689.011719 206.84375 689.058594 206.058594 689.070312 205.277344 C 689.082031 204.492188 689.050781 203.707031 688.984375 202.925781 C 688.917969 202.144531 688.8125 201.367188 688.667969 200.597656 C 688.523438 199.824219 688.34375 199.0625 688.125 198.308594 C 687.90625 197.554688 687.652344 196.816406 687.359375 196.085938 C 687.070312 195.359375 686.742188 194.644531 686.382812 193.949219 C 686.019531 193.253906 685.625 192.578125 685.199219 191.917969 C 684.769531 191.261719 684.3125 190.625 683.820312 190.015625 C 683.328125 189.402344 682.8125 188.816406 682.261719 188.253906 C 681.714844 187.691406 681.140625 187.160156 680.539062 186.652344 C 679.941406 186.148438 679.316406 185.675781 678.667969 185.230469 C 678.019531 184.789062 677.355469 184.378906 676.667969 184 C 675.980469 183.621094 675.273438 183.277344 674.554688 182.96875 L 256.101562 3.605469 C 255.382812 3.296875 254.648438 3.019531 253.898438 2.777344 C 253.152344 2.539062 252.390625 2.335938 251.625 2.171875 C 250.855469 2.007812 250.082031 1.878906 249.300781 1.792969 C 248.519531 1.703125 247.738281 1.652344 246.953125 1.640625 C 246.164062 1.632812 245.382812 1.660156 244.597656 1.726562 C 243.816406 1.792969 243.039062 1.898438 242.265625 2.039062 C 241.492188 2.183594 240.730469 2.363281 239.976562 2.582031 C 239.21875 2.800781 238.476562 3.054688 237.75 3.347656 C 237.019531 3.640625 236.304688 3.96875 235.609375 4.328125 C 234.910156 4.691406 234.234375 5.085938 233.578125 5.515625 C 232.917969 5.945312 232.28125 6.40625 231.671875 6.898438 C 231.058594 7.390625 230.472656 7.910156 229.910156 8.460938 C 229.347656 9.011719 228.816406 9.585938 228.3125 10.191406 C 227.808594 10.792969 227.335938 11.417969 226.890625 12.066406 C 226.449219 12.71875 226.039062 13.386719 225.664062 14.078125 C 225.289062 14.765625 224.945312 15.472656 224.640625 16.195312 L 111.359375 280.476562 C 111.050781 281.199219 110.777344 281.933594 110.539062 282.679688 C 110.304688 283.425781 110.101562 284.183594 109.941406 284.953125 C 109.777344 285.71875 109.652344 286.492188 109.566406 287.273438 C 109.480469 288.054688 109.429688 288.835938 109.421875 289.621094 C 109.410156 290.40625 109.441406 291.1875 109.507812 291.96875 C 109.574219 292.75 109.679688 293.527344 109.824219 294.296875 C 109.96875 295.070312 110.148438 295.832031 110.367188 296.585938 C 110.585938 297.339844 110.839844 298.082031 111.132812 298.808594 C 111.421875 299.535156 111.75 300.25 112.109375 300.945312 C 112.472656 301.640625 112.867188 302.320312 113.292969 302.976562 C 113.722656 303.632812 114.179688 304.269531 114.671875 304.882812 C 115.160156 305.492188 115.679688 306.082031 116.230469 306.640625 C 116.777344 307.203125 117.351562 307.738281 117.953125 308.242188 C 118.550781 308.746094 119.175781 309.222656 119.824219 309.664062 C 120.46875 310.109375 121.136719 310.519531 121.824219 310.898438 C 122.511719 311.273438 123.21875 311.617188 123.9375 311.925781 L 311.5 392.320312 L 311.5 492.644531 L 164.375 584.617188 C 163.964844 582.816406 163.515625 581.019531 163.027344 579.238281 C 162.542969 577.453125 162.019531 575.679688 161.457031 573.917969 C 160.898438 572.15625 160.300781 570.40625 159.667969 568.667969 C 159.03125 566.933594 158.363281 565.210938 157.65625 563.5 C 156.949219 561.792969 156.207031 560.097656 155.429688 558.421875 C 154.648438 556.742188 153.835938 555.082031 152.988281 553.441406 C 152.140625 551.796875 151.261719 550.171875 150.34375 548.566406 C 149.429688 546.957031 148.480469 545.371094 147.496094 543.804688 C 146.515625 542.238281 145.5 540.695312 144.453125 539.171875 C 143.402344 537.648438 142.324219 536.144531 141.214844 534.667969 C 140.101562 533.1875 138.960938 531.734375 137.789062 530.304688 C 136.617188 528.875 135.417969 527.46875 134.1875 526.089844 C 132.957031 524.707031 131.695312 523.355469 130.40625 522.027344 C 129.121094 520.703125 127.804688 519.402344 126.460938 518.128906 C 125.121094 516.859375 123.75 515.617188 122.355469 514.402344 C 120.960938 513.1875 119.542969 512.003906 118.097656 510.847656 C 116.652344 509.695312 115.183594 508.570312 113.695312 507.476562 C 112.203125 506.386719 110.6875 505.324219 109.152344 504.296875 C 107.617188 503.265625 106.058594 502.269531 104.480469 501.304688 C 102.902344 500.34375 101.304688 499.414062 99.6875 498.515625 C 98.070312 497.621094 96.433594 496.757812 94.78125 495.929688 C 93.125 495.101562 91.457031 494.308594 89.769531 493.550781 C 88.082031 492.796875 86.378906 492.074219 84.664062 491.386719 C 82.945312 490.703125 81.214844 490.050781 79.472656 489.4375 C 77.726562 488.824219 75.96875 488.25 74.199219 487.710938 C 72.433594 487.171875 70.652344 486.667969 68.863281 486.203125 C 67.074219 485.742188 65.273438 485.3125 63.464844 484.925781 C 61.660156 484.535156 59.84375 484.183594 58.019531 483.871094 C 56.199219 483.558594 54.371094 483.285156 52.535156 483.050781 C 50.703125 482.816406 48.863281 482.617188 47.023438 482.460938 C 45.179688 482.300781 43.335938 482.179688 41.488281 482.101562 C 39.640625 482.019531 37.792969 481.976562 35.941406 481.976562 L 23.960938 481.976562 C 23.175781 481.972656 22.394531 482.011719 21.613281 482.089844 C 20.832031 482.167969 20.054688 482.28125 19.285156 482.433594 C 18.515625 482.585938 17.757812 482.777344 17.003906 483.003906 C 16.253906 483.234375 15.515625 483.496094 14.789062 483.796875 C 14.066406 484.097656 13.355469 484.433594 12.664062 484.800781 C 11.972656 485.171875 11.300781 485.574219 10.648438 486.011719 C 9.996094 486.445312 9.367188 486.914062 8.757812 487.410156 C 8.152344 487.910156 7.570312 488.4375 7.015625 488.992188 C 6.460938 489.546875 5.933594 490.128906 5.4375 490.734375 C 4.9375 491.339844 4.472656 491.96875 4.035156 492.621094 C 3.601562 493.273438 3.199219 493.949219 2.828125 494.640625 C 2.457031 495.332031 2.121094 496.039062 1.824219 496.765625 C 1.523438 497.492188 1.257812 498.230469 1.03125 498.980469 C 0.800781 499.730469 0.613281 500.492188 0.460938 501.261719 C 0.304688 502.03125 0.191406 502.804688 0.113281 503.585938 C 0.0390625 504.367188 0 505.152344 0 505.9375 L 0 721.589844 C 0 722.375 0.0390625 723.160156 0.113281 723.941406 C 0.191406 724.722656 0.304688 725.496094 0.460938 726.265625 C 0.613281 727.035156 0.800781 727.796875 1.03125 728.546875 C 1.257812 729.300781 1.523438 730.035156 1.824219 730.761719 C 2.121094 731.488281 2.457031 732.195312 2.828125 732.886719 C 3.199219 733.582031 3.601562 734.253906 4.035156 734.90625 C 4.472656 735.558594 4.9375 736.1875 5.4375 736.792969 C 5.933594 737.402344 6.460938 737.980469 7.015625 738.535156 C 7.570312 739.089844 8.152344 739.617188 8.757812 740.117188 C 9.367188 740.613281 9.996094 741.082031 10.648438 741.515625 C 11.300781 741.953125 11.972656 742.355469 12.664062 742.726562 C 13.355469 743.09375 14.066406 743.429688 14.789062 743.730469 C 15.515625 744.03125 16.253906 744.296875 17.003906 744.523438 C 17.757812 744.75 18.515625 744.941406 19.285156 745.09375 C 20.054688 745.246094 20.832031 745.363281 21.613281 745.4375 C 22.394531 745.515625 23.175781 745.554688 23.960938 745.554688 L 35.941406 745.554688 C 37.816406 745.550781 39.6875 745.507812 41.558594 745.425781 C 43.429688 745.34375 45.296875 745.222656 47.164062 745.058594 C 49.027344 744.898438 50.890625 744.695312 52.746094 744.457031 C 54.605469 744.214844 56.453125 743.933594 58.300781 743.613281 C 60.144531 743.292969 61.984375 742.933594 63.8125 742.535156 C 65.644531 742.140625 67.464844 741.703125 69.273438 741.226562 C 71.085938 740.75 72.886719 740.238281 74.675781 739.683594 C 76.464844 739.132812 78.242188 738.542969 80.007812 737.914062 C 81.769531 737.289062 83.519531 736.621094 85.257812 735.921875 C 86.992188 735.21875 88.714844 734.480469 90.417969 733.703125 C 92.121094 732.929688 93.808594 732.117188 95.480469 731.269531 C 97.148438 730.421875 98.800781 729.539062 100.433594 728.621094 C 102.066406 727.703125 103.679688 726.753906 105.269531 725.765625 C 106.863281 724.78125 108.433594 723.761719 109.980469 722.707031 C 111.53125 721.65625 113.054688 720.570312 114.558594 719.453125 C 116.058594 718.335938 117.539062 717.183594 118.992188 716.003906 C 120.445312 714.824219 121.871094 713.613281 123.273438 712.371094 C 124.675781 711.128906 126.050781 709.859375 127.398438 708.558594 C 128.746094 707.257812 130.066406 705.929688 131.359375 704.574219 C 132.648438 703.21875 133.910156 701.835938 135.144531 700.425781 C 136.375 699.015625 137.578125 697.578125 138.75 696.117188 C 139.921875 694.65625 141.0625 693.171875 142.167969 691.660156 C 143.277344 690.152344 144.351562 688.621094 145.394531 687.0625 C 146.4375 685.507812 147.449219 683.933594 148.421875 682.332031 C 149.398438 680.734375 150.339844 679.117188 151.246094 677.480469 C 152.15625 675.839844 153.027344 674.183594 153.863281 672.507812 C 154.699219 670.832031 155.5 669.140625 156.265625 667.429688 C 157.027344 665.71875 157.757812 663.996094 158.445312 662.253906 C 159.136719 660.515625 159.792969 658.761719 160.410156 656.992188 C 161.023438 655.222656 161.601562 653.441406 162.144531 651.648438 C 162.683594 649.855469 163.1875 648.054688 163.648438 646.238281 C 164.113281 644.425781 164.539062 642.601562 164.925781 640.769531 L 348.15625 526.25 C 349.882812 525.171875 351.441406 523.898438 352.84375 522.425781 C 354.242188 520.953125 355.433594 519.328125 356.417969 517.550781 C 357.40625 515.773438 358.152344 513.902344 358.660156 511.933594 C 359.171875 509.96875 359.425781 507.96875 359.425781 505.9375 L 359.425781 412.863281 L 542.390625 491.289062 C 545.398438 492.589844 548.542969 493.238281 551.820312 493.230469 C 552.988281 493.230469 554.148438 493.148438 555.300781 492.980469 C 556.457031 492.8125 557.59375 492.558594 558.710938 492.226562 C 559.828125 491.890625 560.917969 491.476562 561.972656 490.980469 C 563.03125 490.488281 564.046875 489.917969 565.019531 489.277344 C 565.996094 488.636719 566.917969 487.925781 567.789062 487.148438 C 568.65625 486.371094 569.464844 485.535156 570.214844 484.636719 C 570.960938 483.742188 571.640625 482.796875 572.25 481.800781 C 572.859375 480.804688 573.394531 479.773438 573.851562 478.699219 L 599.523438 418.808594 L 653.75 460.027344 C 655.835938 461.613281 658.117188 462.824219 660.597656 463.660156 C 663.078125 464.5 665.628906 464.917969 668.246094 464.917969 C 670.316406 464.917969 672.355469 464.652344 674.355469 464.121094 C 676.117188 463.65625 677.804688 463 679.414062 462.152344 C 681.027344 461.304688 682.523438 460.285156 683.902344 459.09375 C 685.28125 457.90625 686.507812 456.574219 687.582031 455.101562 C 688.65625 453.632812 689.550781 452.058594 690.265625 450.386719 L 746.90625 318.246094 C 747.625 316.570312 748.144531 314.839844 748.46875 313.046875 C 748.789062 311.253906 748.90625 309.449219 748.816406 307.628906 C 748.726562 305.8125 748.433594 304.027344 747.9375 302.273438 C 747.441406 300.523438 746.753906 298.847656 745.875 297.253906 Z M 561.273438 264.773438 C 560.8125 265.847656 560.277344 266.878906 559.667969 267.871094 C 559.058594 268.867188 558.378906 269.808594 557.628906 270.703125 C 556.878906 271.597656 556.070312 272.433594 555.199219 273.207031 C 554.332031 273.984375 553.410156 274.691406 552.433594 275.332031 C 551.460938 275.976562 550.445312 276.542969 549.390625 277.035156 C 548.332031 277.527344 547.246094 277.941406 546.128906 278.277344 C 545.011719 278.609375 543.875 278.863281 542.722656 279.03125 C 541.570312 279.199219 540.410156 279.285156 539.242188 279.28125 C 535.964844 279.289062 532.820312 278.640625 529.8125 277.339844 L 463.742188 249.003906 C 463.019531 248.695312 462.316406 248.351562 461.628906 247.972656 C 460.941406 247.59375 460.273438 247.183594 459.625 246.738281 C 458.976562 246.296875 458.355469 245.820312 457.753906 245.316406 C 457.152344 244.8125 456.578125 244.277344 456.03125 243.714844 C 455.480469 243.152344 454.960938 242.566406 454.472656 241.953125 C 453.980469 241.339844 453.523438 240.707031 453.09375 240.046875 C 452.664062 239.390625 452.269531 238.714844 451.910156 238.015625 C 451.546875 237.320312 451.222656 236.605469 450.929688 235.878906 C 450.636719 235.148438 450.382812 234.410156 450.164062 233.65625 C 449.945312 232.902344 449.765625 232.136719 449.621094 231.367188 C 449.476562 230.59375 449.371094 229.816406 449.304688 229.035156 C 449.234375 228.253906 449.207031 227.46875 449.21875 226.683594 C 449.226562 225.902344 449.273438 225.117188 449.359375 224.339844 C 449.449219 223.558594 449.574219 222.785156 449.734375 222.015625 C 449.898438 221.25 450.097656 220.488281 450.335938 219.742188 C 450.570312 218.992188 450.84375 218.257812 451.152344 217.539062 C 451.464844 216.816406 451.808594 216.113281 452.1875 215.421875 C 452.566406 214.734375 452.976562 214.070312 453.421875 213.421875 C 453.863281 212.773438 454.339844 212.152344 454.84375 211.550781 C 455.351562 210.949219 455.882812 210.375 456.445312 209.828125 C 457.007812 209.28125 457.59375 208.761719 458.207031 208.269531 C 458.820312 207.78125 459.457031 207.320312 460.113281 206.894531 C 460.773438 206.464844 461.449219 206.070312 462.148438 205.710938 C 462.84375 205.347656 463.554688 205.023438 464.285156 204.730469 C 465.015625 204.4375 465.753906 204.183594 466.507812 203.964844 C 467.261719 203.746094 468.027344 203.566406 468.796875 203.421875 C 469.570312 203.28125 470.347656 203.175781 471.128906 203.109375 C 471.910156 203.042969 472.695312 203.011719 473.480469 203.023438 C 474.265625 203.03125 475.046875 203.082031 475.828125 203.167969 C 476.605469 203.253906 477.378906 203.378906 478.148438 203.542969 C 478.917969 203.707031 479.675781 203.90625 480.421875 204.144531 C 481.171875 204.382812 481.90625 204.65625 482.625 204.964844 L 548.695312 233.300781 C 549.417969 233.609375 550.121094 233.957031 550.808594 234.332031 C 551.496094 234.710938 552.164062 235.125 552.8125 235.566406 C 553.460938 236.011719 554.082031 236.488281 554.683594 236.992188 C 555.285156 237.496094 555.859375 238.03125 556.40625 238.59375 C 556.957031 239.15625 557.476562 239.742188 557.964844 240.355469 C 558.457031 240.96875 558.914062 241.605469 559.34375 242.261719 C 559.769531 242.921875 560.164062 243.597656 560.527344 244.292969 C 560.886719 244.992188 561.214844 245.703125 561.503906 246.433594 C 561.796875 247.160156 562.050781 247.902344 562.269531 248.65625 C 562.488281 249.410156 562.667969 250.175781 562.8125 250.945312 C 562.957031 251.71875 563.0625 252.496094 563.128906 253.277344 C 563.195312 254.058594 563.222656 254.84375 563.214844 255.628906 C 563.203125 256.414062 563.15625 257.195312 563.070312 257.976562 C 562.984375 258.753906 562.859375 259.527344 562.695312 260.296875 C 562.53125 261.066406 562.332031 261.824219 562.09375 262.570312 C 561.855469 263.320312 561.582031 264.054688 561.273438 264.777344 Z M 561.273438 264.773438 " fill-opacity="1" fill-rule="nonzero"/></svg>