<svg xmlns="http://www.w3.org/2000/svg" width="150px" height="150px" viewBox="0 0 1500 1500" preserveAspectRatio="xMidYMid meet">
<g id="layer101" fill="#2e3092" stroke="none">
 <path d="M0 1115 c0 -119 10 -149 62 -188 75 -56 172 -89 311 -107 88 -11 200 2 303 34 l74 24 74 -24 c214 -68 466 -38 614 73 52 39 62 69 62 188 l0 105 -750 0 -750 0 0 -105z m778 -47 l-3 -53 -65 -32 c-169 -83 -399 -79 -555 10 -38 21 -40 25 -43 75 l-3 52 336 0 336 0 -3 -52z m610 0 l-3 -53 -65 -33 c-74 -37 -179 -62 -260 -62 -49 0 -187 23 -197 33 -2 2 3 17 12 33 8 16 15 53 15 82 l0 52 251 0 250 0 -3 -52z"/>
 <path d="M350 730 c-96 -45 -144 -118 -144 -220 0 -70 16 -113 63 -163 46 -50 98 -71 177 -71 62 0 78 3 120 30 83 51 131 153 114 244 -27 149 -198 242 -330 180z m160 -105 c82 -42 82 -188 0 -230 -116 -60 -244 61 -185 176 32 62 121 87 185 54z"/>
 <path d="M977 736 c-139 -50 -201 -211 -130 -338 97 -173 336 -166 429 12 26 50 25 153 -3 205 -58 109 -184 160 -296 121z m144 -111 c120 -62 71 -245 -66 -245 -101 0 -159 105 -111 198 30 58 113 80 177 47z"/>
 </g>

</svg>