<svg xmlns="http://www.w3.org/2000/svg" width="150px" height="150px" viewBox="0 0 1500 1500" preserveAspectRatio="xMidYMid meet">
<g id="layer101" fill="#2e3092" stroke="none">
 <path d="M564 1480 c-213 -24 -366 -76 -447 -150 l-52 -48 -3 -226 c-3 -216 -2 -229 18 -261 19 -30 101 -95 122 -95 4 0 8 -61 8 -136 0 -156 9 -187 68 -228 59 -40 142 -69 158 -55 26 21 14 37 -46 59 -68 25 -120 68 -120 97 0 26 33 55 98 87 36 19 52 32 52 46 0 31 -40 23 -142 -28 -5 -2 -8 42 -8 97 0 115 6 125 95 167 100 47 176 58 380 59 214 0 299 -14 405 -66 79 -40 90 -62 90 -179 l0 -91 -44 26 c-80 47 -223 77 -398 82 -179 6 -211 2 -206 -28 3 -20 10 -21 173 -24 224 -4 367 -38 443 -108 48 -45 22 -83 -93 -133 -65 -28 -84 -55 -50 -68 19 -7 125 35 162 64 58 45 63 63 63 215 l0 140 47 25 c25 13 59 42 75 64 l28 39 0 219 c0 255 -1 256 -91 317 -66 44 -179 83 -304 106 -105 18 -378 27 -481 15z m456 -66 c163 -28 278 -72 337 -131 32 -33 33 -35 33 -123 0 -81 -2 -89 -21 -95 -44 -14 -86 4 -146 64 -89 90 -137 97 -273 44 -81 -32 -151 -28 -231 13 -41 21 -68 28 -115 29 -63 0 -84 -10 -173 -82 -37 -31 -77 -34 -212 -18 -45 5 -73 4 -87 -4 -22 -11 -22 -10 -22 56 0 91 18 119 107 166 178 93 523 128 803 81z m-306 -286 c64 -28 77 -30 150 -25 53 3 97 12 126 25 25 12 65 22 88 22 40 0 49 -5 105 -59 77 -73 93 -81 156 -81 l51 0 0 -79 c0 -44 -3 -87 -6 -96 -4 -9 -27 -32 -52 -51 l-46 -35 -19 31 c-12 19 -45 43 -90 65 -265 131 -809 97 -933 -59 l-28 -34 -43 30 c-55 37 -63 58 -63 159 0 73 2 82 26 106 22 22 31 25 67 19 169 -26 208 -21 284 41 88 72 107 74 227 21z"/>
 <path d="M508 623 c-37 -6 -56 -30 -37 -48 11 -11 24 -12 62 -3 41 8 48 13 45 31 -3 23 -21 28 -70 20z"/>
 <path d="M467 433 c-4 -3 -7 -57 -7 -119 0 -86 4 -116 15 -127 13 -13 13 -16 0 -27 -22 -18 -18 -72 8 -111 33 -49 51 -48 81 4 30 51 33 79 10 102 -13 12 -14 19 -5 28 7 7 11 56 11 134 l0 123 -53 0 c-30 0 -57 -3 -60 -7z m60 -176 c-2 -23 -3 -2 -3 48 0 50 1 68 3 42 2 -26 2 -67 0 -90z m7 -152 c-4 -8 -10 -12 -15 -9 -14 8 -10 24 6 24 9 0 12 -6 9 -15z"/>
 <path d="M697 434 c-4 -4 -7 -38 -7 -76 l0 -68 -45 0 c-41 0 -45 -2 -45 -25 0 -22 5 -25 33 -25 39 0 52 -8 61 -37 4 -13 12 -23 18 -23 6 0 5 -7 -4 -17 -8 -10 -18 -26 -21 -36 -9 -23 14 -76 42 -101 21 -19 21 -19 46 4 13 13 29 38 36 57 9 28 8 38 -6 59 -12 19 -14 29 -6 37 6 6 11 19 11 28 0 19 19 29 55 29 12 0 25 6 27 13 10 25 -4 37 -42 37 l-39 0 -3 73 -3 72 -50 3 c-28 2 -54 0 -58 -4z m63 -129 c0 -50 -4 -85 -10 -85 -6 0 -10 35 -10 85 0 50 4 85 10 85 6 0 10 -35 10 -85z m0 -200 c0 -8 -4 -15 -10 -15 -5 0 -10 7 -10 15 0 8 5 15 10 15 6 0 10 -7 10 -15z"/>
 <path d="M917 433 c-4 -3 -7 -57 -7 -119 0 -86 4 -116 15 -127 13 -13 13 -16 0 -27 -22 -18 -18 -72 8 -111 33 -49 51 -48 81 4 30 51 33 79 10 102 -13 12 -14 19 -5 28 7 7 11 56 11 134 l0 123 -53 0 c-30 0 -57 -3 -60 -7z m63 -128 c0 -50 -4 -85 -10 -85 -6 0 -10 35 -10 85 0 50 4 85 10 85 6 0 10 -35 10 -85z m4 -200 c-4 -8 -10 -12 -15 -9 -14 8 -10 24 6 24 9 0 12 -6 9 -15z"/>
 </g>
</svg>