<svg xmlns="http://www.w3.org/2000/svg" width="150px" height="150px" viewBox="0 0 1500 1500" preserveAspectRatio="xMidYMid meet">
<g id="layer101" fill="#2e3092" stroke="none">
 <path d="M22 1477 c-21 -22 -22 -31 -22 -231 l0 -208 56 -102 c73 -130 79 -136 126 -136 l38 0 0 -270 c0 -301 4 -324 62 -360 26 -15 50 -20 110 -20 69 0 80 -3 102 -25 19 -18 36 -25 66 -25 37 0 40 -2 40 -28 0 -17 10 -37 23 -50 21 -20 34 -22 128 -22 97 0 107 2 127 23 12 13 22 35 22 50 0 25 3 27 40 27 30 0 47 7 66 25 22 22 33 25 102 25 60 0 84 5 110 20 58 36 62 59 62 360 l0 270 38 0 c47 0 53 6 126 136 l56 102 0 209 c0 206 0 210 -23 231 l-23 22 -705 0 -706 0 -21 -23z m1416 -39 c8 -8 12 -64 12 -185 l0 -173 -197 2 -198 3 -3 35 c-2 19 -13 45 -24 58 -21 22 -25 22 -278 22 -253 0 -257 0 -278 -22 -11 -13 -22 -39 -24 -58 l-3 -35 -197 -3 -198 -2 0 173 c0 121 4 177 12 185 17 17 1359 17 1376 0z m-768 -306 c0 -29 -28 -60 -64 -72 -47 -15 -106 8 -106 42 0 39 19 48 97 48 63 0 73 -2 73 -18z m318 6 c7 -7 12 -24 12 -39 0 -41 29 -69 78 -76 l42 -6 0 -408 0 -409 -45 0 c-34 0 -50 6 -69 25 l-25 25 -231 0 -231 0 -25 -25 c-19 -19 -35 -25 -69 -25 l-45 0 0 410 0 410 28 1 c15 0 36 4 47 8 13 5 30 2 50 -11 36 -22 96 -23 134 -3 38 19 78 68 86 105 l7 30 122 0 c82 0 126 -4 134 -12z m-868 -160 l-1 -43 -19 35 c-24 45 -24 50 0 50 17 0 20 -7 20 -42z m100 -43 c0 -78 -2 -85 -20 -85 -18 0 -20 7 -20 85 0 78 2 85 20 85 18 0 20 -7 20 -85z m100 -322 c-1 -407 -1 -408 -20 -384 -19 22 -20 40 -20 407 0 377 0 384 20 384 20 0 20 -7 20 -407z m900 23 c0 -367 -1 -385 -20 -407 -19 -24 -19 -23 -20 384 0 400 0 407 20 407 20 0 20 -7 20 -384z m100 299 c0 -78 -2 -85 -20 -85 -18 0 -20 7 -20 85 0 78 2 85 20 85 18 0 20 -7 20 -85z m100 80 c0 -10 -30 -65 -35 -65 -3 0 -5 16 -5 35 0 28 4 35 20 35 11 0 20 -2 20 -5z m-455 -840 c0 -17 -8 -21 -55 -25 -54 -5 -55 -5 -58 -40 -2 -19 -8 -41 -14 -47 -14 -17 -159 -18 -176 -1 -27 27 -13 38 47 38 59 0 74 9 63 38 -3 8 -36 12 -117 12 -114 0 -133 6 -121 36 5 12 38 14 218 12 205 -3 213 -4 213 -23z"/>
 <path d="M499 1381 c-17 -13 -23 -29 -23 -56 0 -27 6 -43 23 -56 21 -17 43 -19 251 -19 208 0 230 2 251 19 17 13 23 29 23 56 0 27 -6 43 -23 56 -21 17 -43 19 -251 19 -208 0 -230 -2 -251 -19z m466 -56 c0 -19 -8 -20 -209 -23 -124 -1 -214 2 -219 7 -5 5 -7 17 -4 26 6 13 33 15 219 13 205 -3 213 -4 213 -23z"/>
 <path d="M500 928 c-54 -37 -75 -73 -75 -128 0 -55 21 -91 75 -127 92 -63 225 12 225 127 0 81 -69 150 -150 150 -27 0 -54 -8 -75 -22z m120 -43 c36 -19 50 -43 50 -87 0 -70 -67 -112 -133 -84 -41 16 -57 41 -57 86 0 41 14 66 48 84 35 19 56 20 92 1z"/>
 <path d="M529 828 c-10 -19 -9 -24 6 -33 10 -5 25 -18 34 -27 19 -22 50 -23 57 -3 8 19 -44 85 -67 85 -10 0 -24 -10 -30 -22z"/>
 <path d="M813 873 c-18 -7 -16 -40 3 -47 9 -3 46 -6 84 -6 81 0 100 6 100 30 0 10 -7 21 -16 24 -19 7 -153 7 -171 -1z"/>
 <path d="M813 773 c-18 -7 -16 -40 3 -47 9 -3 66 -6 129 -6 88 0 115 3 125 15 10 12 10 18 0 30 -10 12 -37 15 -129 14 -64 0 -122 -3 -128 -6z"/>
 <path d="M500 578 c-54 -37 -75 -73 -75 -128 0 -55 21 -91 75 -127 92 -63 225 12 225 127 0 81 -69 150 -150 150 -27 0 -54 -8 -75 -22z m120 -43 c36 -19 50 -43 50 -87 0 -70 -67 -112 -133 -84 -41 16 -57 41 -57 86 0 41 14 66 48 84 35 19 56 20 92 1z"/>
 <path d="M529 478 c-10 -19 -9 -24 6 -33 10 -5 25 -18 34 -27 19 -22 50 -23 57 -3 8 19 -44 85 -67 85 -10 0 -24 -10 -30 -22z"/>
 <path d="M813 523 c-18 -7 -16 -40 3 -47 9 -3 46 -6 84 -6 81 0 100 6 100 30 0 10 -7 21 -16 24 -19 7 -153 7 -171 -1z"/>
 <path d="M813 423 c-18 -7 -16 -40 3 -47 9 -3 66 -6 129 -6 88 0 115 3 125 15 10 12 10 18 0 30 -10 12 -37 15 -129 14 -64 0 -122 -3 -128 -6z"/>
 </g>

</svg>